<mxfile host="app.diagrams.net" modified="2020-10-30T13:52:43.524Z" agent="5.0 (Windows NT 10.0; Win64; x64) AppleWebKit/537.36 (KHTML, like Gecko) Chrome/78.0.3904.97 Safari/537.36" etag="sW6zBtkIT0N14_oNDr-E" version="13.8.7" type="github" pages="2">
  <diagram id="JuQ9Ep4YEj0S0VAaOH0p" name="Page-1">
    <mxGraphModel dx="1806" dy="908" grid="1" gridSize="10" guides="1" tooltips="1" connect="1" arrows="1" fold="1" page="1" pageScale="1" pageWidth="850" pageHeight="1100" math="0" shadow="0">
      <root>
        <mxCell id="0" />
        <mxCell id="1" parent="0" />
        <mxCell id="ZotxuuK5Ct2Fdhp2b5MH-11" value="{abstract}&#xa;Command" style="swimlane;fontStyle=3;align=center;verticalAlign=top;childLayout=stackLayout;horizontal=1;startSize=40;horizontalStack=0;resizeParent=1;resizeParentMax=0;resizeLast=0;collapsible=1;marginBottom=0;" parent="1" vertex="1">
          <mxGeometry x="1100" y="830" width="400" height="210" as="geometry" />
        </mxCell>
        <mxCell id="ZotxuuK5Ct2Fdhp2b5MH-12" value="+line: String&#xa;+projects: ProjectList&#xa;+storage: Storage&#xa;+ui: Ui" style="text;strokeColor=none;fillColor=none;align=left;verticalAlign=top;spacingLeft=4;spacingRight=4;overflow=hidden;rotatable=0;points=[[0,0.5],[1,0.5]];portConstraint=eastwest;" parent="ZotxuuK5Ct2Fdhp2b5MH-11" vertex="1">
          <mxGeometry y="40" width="400" height="60" as="geometry" />
        </mxCell>
        <mxCell id="ZotxuuK5Ct2Fdhp2b5MH-13" value="" style="line;strokeWidth=1;fillColor=none;align=left;verticalAlign=middle;spacingTop=-1;spacingLeft=3;spacingRight=3;rotatable=0;labelPosition=right;points=[];portConstraint=eastwest;" parent="ZotxuuK5Ct2Fdhp2b5MH-11" vertex="1">
          <mxGeometry y="100" width="400" height="28" as="geometry" />
        </mxCell>
        <mxCell id="ZotxuuK5Ct2Fdhp2b5MH-14" value="#Command(line:String, projects:ProjectList, ui:Ui, storage:Storage)&#xa;#Command(line:String, projects:ProjectList, ui:Ui)&#xa;#Command(projects:ProjectList, ui:Ui)&#xa;#Command(ui:Ui)&#xa;+execute(){abstract}" style="text;strokeColor=none;fillColor=none;align=left;verticalAlign=top;spacingLeft=4;spacingRight=4;overflow=hidden;rotatable=0;points=[[0,0.5],[1,0.5]];portConstraint=eastwest;" parent="ZotxuuK5Ct2Fdhp2b5MH-11" vertex="1">
          <mxGeometry y="128" width="400" height="82" as="geometry" />
        </mxCell>
        <mxCell id="QECHB9NjO16_AEo7jIQd-87" style="edgeStyle=orthogonalEdgeStyle;rounded=0;orthogonalLoop=1;jettySize=auto;html=1;endArrow=block;endFill=0;fontColor=#000000;" parent="1" source="QECHB9NjO16_AEo7jIQd-1" target="ZotxuuK5Ct2Fdhp2b5MH-12" edge="1">
          <mxGeometry relative="1" as="geometry">
            <Array as="points">
              <mxPoint x="140" y="900" />
            </Array>
          </mxGeometry>
        </mxCell>
        <mxCell id="QECHB9NjO16_AEo7jIQd-1" value="Help" style="swimlane;fontStyle=1;align=center;verticalAlign=top;childLayout=stackLayout;horizontal=1;startSize=26;horizontalStack=0;resizeParent=1;resizeParentMax=0;resizeLast=0;collapsible=1;marginBottom=0;" parent="1" vertex="1">
          <mxGeometry x="60" y="1250" width="160" height="110" as="geometry" />
        </mxCell>
        <mxCell id="QECHB9NjO16_AEo7jIQd-2" value="+word: String" style="text;strokeColor=none;fillColor=none;align=left;verticalAlign=top;spacingLeft=4;spacingRight=4;overflow=hidden;rotatable=0;points=[[0,0.5],[1,0.5]];portConstraint=eastwest;" parent="QECHB9NjO16_AEo7jIQd-1" vertex="1">
          <mxGeometry y="26" width="160" height="26" as="geometry" />
        </mxCell>
        <mxCell id="QECHB9NjO16_AEo7jIQd-3" value="" style="line;strokeWidth=1;fillColor=none;align=left;verticalAlign=middle;spacingTop=-1;spacingLeft=3;spacingRight=3;rotatable=0;labelPosition=right;points=[];portConstraint=eastwest;" parent="QECHB9NjO16_AEo7jIQd-1" vertex="1">
          <mxGeometry y="52" width="160" height="8" as="geometry" />
        </mxCell>
        <mxCell id="QECHB9NjO16_AEo7jIQd-4" value="+Help(ui: Ui)&#xa;+execute()" style="text;strokeColor=none;fillColor=none;align=left;verticalAlign=top;spacingLeft=4;spacingRight=4;overflow=hidden;rotatable=0;points=[[0,0.5],[1,0.5]];portConstraint=eastwest;" parent="QECHB9NjO16_AEo7jIQd-1" vertex="1">
          <mxGeometry y="60" width="160" height="50" as="geometry" />
        </mxCell>
        <mxCell id="QECHB9NjO16_AEo7jIQd-95" style="edgeStyle=orthogonalEdgeStyle;rounded=0;orthogonalLoop=1;jettySize=auto;html=1;entryX=0.505;entryY=1.005;entryDx=0;entryDy=0;entryPerimeter=0;endArrow=block;endFill=0;fontColor=#000000;" parent="1" source="QECHB9NjO16_AEo7jIQd-5" target="ZotxuuK5Ct2Fdhp2b5MH-14" edge="1">
          <mxGeometry relative="1" as="geometry" />
        </mxCell>
        <mxCell id="QECHB9NjO16_AEo7jIQd-5" value="Add" style="swimlane;fontStyle=1;align=center;verticalAlign=top;childLayout=stackLayout;horizontal=1;startSize=26;horizontalStack=0;resizeParent=1;resizeParentMax=0;resizeLast=0;collapsible=1;marginBottom=0;" parent="1" vertex="1">
          <mxGeometry x="190" y="1090" width="350" height="110" as="geometry" />
        </mxCell>
        <mxCell id="QECHB9NjO16_AEo7jIQd-6" value="+word: String" style="text;strokeColor=none;fillColor=none;align=left;verticalAlign=top;spacingLeft=4;spacingRight=4;overflow=hidden;rotatable=0;points=[[0,0.5],[1,0.5]];portConstraint=eastwest;" parent="QECHB9NjO16_AEo7jIQd-5" vertex="1">
          <mxGeometry y="26" width="350" height="26" as="geometry" />
        </mxCell>
        <mxCell id="QECHB9NjO16_AEo7jIQd-7" value="" style="line;strokeWidth=1;fillColor=none;align=left;verticalAlign=middle;spacingTop=-1;spacingLeft=3;spacingRight=3;rotatable=0;labelPosition=right;points=[];portConstraint=eastwest;" parent="QECHB9NjO16_AEo7jIQd-5" vertex="1">
          <mxGeometry y="52" width="350" height="8" as="geometry" />
        </mxCell>
        <mxCell id="QECHB9NjO16_AEo7jIQd-8" value="+Add(line: String, projects: ProjectList, ui: Ui, storage: Storage)&#xa;+execute()" style="text;strokeColor=none;fillColor=none;align=left;verticalAlign=top;spacingLeft=4;spacingRight=4;overflow=hidden;rotatable=0;points=[[0,0.5],[1,0.5]];portConstraint=eastwest;" parent="QECHB9NjO16_AEo7jIQd-5" vertex="1">
          <mxGeometry y="60" width="350" height="50" as="geometry" />
        </mxCell>
        <mxCell id="QECHB9NjO16_AEo7jIQd-94" style="edgeStyle=orthogonalEdgeStyle;rounded=0;orthogonalLoop=1;jettySize=auto;html=1;entryX=0.589;entryY=1.005;entryDx=0;entryDy=0;entryPerimeter=0;endArrow=block;endFill=0;fontColor=#000000;" parent="1" source="QECHB9NjO16_AEo7jIQd-34" target="ZotxuuK5Ct2Fdhp2b5MH-14" edge="1">
          <mxGeometry relative="1" as="geometry" />
        </mxCell>
        <mxCell id="QECHB9NjO16_AEo7jIQd-34" value="Find" style="swimlane;fontStyle=1;align=center;verticalAlign=top;childLayout=stackLayout;horizontal=1;startSize=26;horizontalStack=0;resizeParent=1;resizeParentMax=0;resizeLast=0;collapsible=1;marginBottom=0;" parent="1" vertex="1">
          <mxGeometry x="1920" y="1090" width="360" height="110" as="geometry" />
        </mxCell>
        <mxCell id="QECHB9NjO16_AEo7jIQd-35" value="+word: String" style="text;strokeColor=none;fillColor=none;align=left;verticalAlign=top;spacingLeft=4;spacingRight=4;overflow=hidden;rotatable=0;points=[[0,0.5],[1,0.5]];portConstraint=eastwest;" parent="QECHB9NjO16_AEo7jIQd-34" vertex="1">
          <mxGeometry y="26" width="360" height="22" as="geometry" />
        </mxCell>
        <mxCell id="QECHB9NjO16_AEo7jIQd-36" value="" style="line;strokeWidth=1;fillColor=none;align=left;verticalAlign=middle;spacingTop=-1;spacingLeft=3;spacingRight=3;rotatable=0;labelPosition=right;points=[];portConstraint=eastwest;" parent="QECHB9NjO16_AEo7jIQd-34" vertex="1">
          <mxGeometry y="48" width="360" height="8" as="geometry" />
        </mxCell>
        <mxCell id="QECHB9NjO16_AEo7jIQd-37" value="+Find(line: String, projects: ProjectList, ui: Ui, storage: Storage)&#xa;+execute()&#xa;-findAndReplace()" style="text;strokeColor=none;fillColor=none;align=left;verticalAlign=top;spacingLeft=4;spacingRight=4;overflow=hidden;rotatable=0;points=[[0,0.5],[1,0.5]];portConstraint=eastwest;" parent="QECHB9NjO16_AEo7jIQd-34" vertex="1">
          <mxGeometry y="56" width="360" height="54" as="geometry" />
        </mxCell>
        <mxCell id="ZotxuuK5Ct2Fdhp2b5MH-23" value="Tracker" style="swimlane;fontStyle=1;align=center;verticalAlign=top;childLayout=stackLayout;horizontal=1;startSize=26;horizontalStack=0;resizeParent=1;resizeParentMax=0;resizeLast=0;collapsible=1;marginBottom=0;" parent="1" vertex="1">
          <mxGeometry x="970" y="180" width="260" height="200" as="geometry" />
        </mxCell>
        <mxCell id="ZotxuuK5Ct2Fdhp2b5MH-24" value="-ui: Ui&#xa;-parser: Parser&#xa;-in: Scanner&#xa;-projects: ProjectList&#xa;-storage: Storage" style="text;strokeColor=none;fillColor=none;align=left;verticalAlign=top;spacingLeft=4;spacingRight=4;overflow=hidden;rotatable=0;points=[[0,0.5],[1,0.5]];portConstraint=eastwest;" parent="ZotxuuK5Ct2Fdhp2b5MH-23" vertex="1">
          <mxGeometry y="26" width="260" height="84" as="geometry" />
        </mxCell>
        <mxCell id="ZotxuuK5Ct2Fdhp2b5MH-25" value="" style="line;strokeWidth=1;fillColor=none;align=left;verticalAlign=middle;spacingTop=-1;spacingLeft=3;spacingRight=3;rotatable=0;labelPosition=right;points=[];portConstraint=eastwest;" parent="ZotxuuK5Ct2Fdhp2b5MH-23" vertex="1">
          <mxGeometry y="110" width="260" height="8" as="geometry" />
        </mxCell>
        <mxCell id="ZotxuuK5Ct2Fdhp2b5MH-26" value="+main(args:String)&#xa;+run()&#xa;+readUserInput()&#xa;+isExit(command:Command): boolean" style="text;strokeColor=none;fillColor=none;align=left;verticalAlign=top;spacingLeft=4;spacingRight=4;overflow=hidden;rotatable=0;points=[[0,0.5],[1,0.5]];portConstraint=eastwest;" parent="ZotxuuK5Ct2Fdhp2b5MH-23" vertex="1">
          <mxGeometry y="118" width="260" height="82" as="geometry" />
        </mxCell>
        <mxCell id="QECHB9NjO16_AEo7jIQd-114" style="edgeStyle=orthogonalEdgeStyle;rounded=0;orthogonalLoop=1;jettySize=auto;html=1;entryX=0.003;entryY=0.098;entryDx=0;entryDy=0;entryPerimeter=0;endArrow=block;endFill=0;fontColor=#000000;" parent="1" source="ZotxuuK5Ct2Fdhp2b5MH-44" target="ZotxuuK5Ct2Fdhp2b5MH-26" edge="1">
          <mxGeometry relative="1" as="geometry" />
        </mxCell>
        <mxCell id="ZotxuuK5Ct2Fdhp2b5MH-44" value="Storage" style="swimlane;fontStyle=1;align=center;verticalAlign=top;childLayout=stackLayout;horizontal=1;startSize=26;horizontalStack=0;resizeParent=1;resizeParentMax=0;resizeLast=0;collapsible=1;marginBottom=0;" parent="1" vertex="1">
          <mxGeometry x="170" y="480" width="540" height="210" as="geometry" />
        </mxCell>
        <mxCell id="ZotxuuK5Ct2Fdhp2b5MH-45" value="-fileName: String" style="text;strokeColor=none;fillColor=none;align=left;verticalAlign=top;spacingLeft=4;spacingRight=4;overflow=hidden;rotatable=0;points=[[0,0.5],[1,0.5]];portConstraint=eastwest;" parent="ZotxuuK5Ct2Fdhp2b5MH-44" vertex="1">
          <mxGeometry y="26" width="540" height="26" as="geometry" />
        </mxCell>
        <mxCell id="ZotxuuK5Ct2Fdhp2b5MH-46" value="" style="line;strokeWidth=1;fillColor=none;align=left;verticalAlign=middle;spacingTop=-1;spacingLeft=3;spacingRight=3;rotatable=0;labelPosition=right;points=[];portConstraint=eastwest;" parent="ZotxuuK5Ct2Fdhp2b5MH-44" vertex="1">
          <mxGeometry y="52" width="540" height="8" as="geometry" />
        </mxCell>
        <mxCell id="ZotxuuK5Ct2Fdhp2b5MH-47" value="+Storage(fileName: String, projects: ProjectList, ui: Ui)&#xa;+updateStorage(projects: ProjectList)&#xa;+readStorage(projects: ProjectList, ui: Ui, storage: Storage)&#xa;-getLines(fileName: String): ArrayList&lt;String&gt;&#xa;+extractProjects(lines: ArrayList&lt;String&gt;, projects: ProjectList, ui: Ui, storage: Storage): ProjectList" style="text;strokeColor=none;fillColor=none;align=left;verticalAlign=top;spacingLeft=4;spacingRight=4;overflow=hidden;rotatable=0;points=[[0,0.5],[1,0.5]];portConstraint=eastwest;" parent="ZotxuuK5Ct2Fdhp2b5MH-44" vertex="1">
          <mxGeometry y="60" width="540" height="150" as="geometry" />
        </mxCell>
        <mxCell id="ZotxuuK5Ct2Fdhp2b5MH-39" value="Parser" style="swimlane;fontStyle=1;align=center;verticalAlign=top;childLayout=stackLayout;horizontal=1;startSize=26;horizontalStack=0;resizeParent=1;resizeParentMax=0;resizeLast=0;collapsible=1;marginBottom=0;" parent="1" vertex="1">
          <mxGeometry x="190" y="190" width="460" height="84" as="geometry" />
        </mxCell>
        <mxCell id="ZotxuuK5Ct2Fdhp2b5MH-41" value="" style="line;strokeWidth=1;fillColor=none;align=left;verticalAlign=middle;spacingTop=-1;spacingLeft=3;spacingRight=3;rotatable=0;labelPosition=right;points=[];portConstraint=eastwest;" parent="ZotxuuK5Ct2Fdhp2b5MH-39" vertex="1">
          <mxGeometry y="26" width="460" height="8" as="geometry" />
        </mxCell>
        <mxCell id="ZotxuuK5Ct2Fdhp2b5MH-42" value="+parseInput(line: String, projects: ProjectList, ui: Ui, storage: Storage): Command" style="text;strokeColor=none;fillColor=none;align=left;verticalAlign=top;spacingLeft=4;spacingRight=4;overflow=hidden;rotatable=0;points=[[0,0.5],[1,0.5]];portConstraint=eastwest;" parent="ZotxuuK5Ct2Fdhp2b5MH-39" vertex="1">
          <mxGeometry y="34" width="460" height="50" as="geometry" />
        </mxCell>
        <mxCell id="QECHB9NjO16_AEo7jIQd-22" value="Create" style="swimlane;fontStyle=1;align=center;verticalAlign=top;childLayout=stackLayout;horizontal=1;startSize=26;horizontalStack=0;resizeParent=1;resizeParentMax=0;resizeLast=0;collapsible=1;marginBottom=0;" parent="1" vertex="1">
          <mxGeometry x="1490" y="1085" width="370" height="100" as="geometry" />
        </mxCell>
        <mxCell id="QECHB9NjO16_AEo7jIQd-23" value="+word: String" style="text;strokeColor=none;fillColor=none;align=left;verticalAlign=top;spacingLeft=4;spacingRight=4;overflow=hidden;rotatable=0;points=[[0,0.5],[1,0.5]];portConstraint=eastwest;" parent="QECHB9NjO16_AEo7jIQd-22" vertex="1">
          <mxGeometry y="26" width="370" height="26" as="geometry" />
        </mxCell>
        <mxCell id="QECHB9NjO16_AEo7jIQd-24" value="" style="line;strokeWidth=1;fillColor=none;align=left;verticalAlign=middle;spacingTop=-1;spacingLeft=3;spacingRight=3;rotatable=0;labelPosition=right;points=[];portConstraint=eastwest;" parent="QECHB9NjO16_AEo7jIQd-22" vertex="1">
          <mxGeometry y="52" width="370" height="8" as="geometry" />
        </mxCell>
        <mxCell id="QECHB9NjO16_AEo7jIQd-25" value="+Project(line: String, projects: ProjectList, ui: Ui, storage: Storage)&#xa;+execute()" style="text;strokeColor=none;fillColor=none;align=left;verticalAlign=top;spacingLeft=4;spacingRight=4;overflow=hidden;rotatable=0;points=[[0,0.5],[1,0.5]];portConstraint=eastwest;" parent="QECHB9NjO16_AEo7jIQd-22" vertex="1">
          <mxGeometry y="60" width="370" height="40" as="geometry" />
        </mxCell>
        <mxCell id="QECHB9NjO16_AEo7jIQd-13" value="Edit" style="swimlane;fontStyle=1;align=center;verticalAlign=top;childLayout=stackLayout;horizontal=1;startSize=26;horizontalStack=0;resizeParent=1;resizeParentMax=0;resizeLast=0;collapsible=1;marginBottom=0;" parent="1" vertex="1">
          <mxGeometry x="710" y="1085" width="380" height="110" as="geometry" />
        </mxCell>
        <mxCell id="QECHB9NjO16_AEo7jIQd-14" value="+word: String" style="text;strokeColor=none;fillColor=none;align=left;verticalAlign=top;spacingLeft=4;spacingRight=4;overflow=hidden;rotatable=0;points=[[0,0.5],[1,0.5]];portConstraint=eastwest;" parent="QECHB9NjO16_AEo7jIQd-13" vertex="1">
          <mxGeometry y="26" width="380" height="26" as="geometry" />
        </mxCell>
        <mxCell id="QECHB9NjO16_AEo7jIQd-15" value="" style="line;strokeWidth=1;fillColor=none;align=left;verticalAlign=middle;spacingTop=-1;spacingLeft=3;spacingRight=3;rotatable=0;labelPosition=right;points=[];portConstraint=eastwest;" parent="QECHB9NjO16_AEo7jIQd-13" vertex="1">
          <mxGeometry y="52" width="380" height="8" as="geometry" />
        </mxCell>
        <mxCell id="QECHB9NjO16_AEo7jIQd-16" value="+Replace(line: String, projects: ProjectList, ui: Ui, storage: Storage)&#xa;+execute()" style="text;strokeColor=none;fillColor=none;align=left;verticalAlign=top;spacingLeft=4;spacingRight=4;overflow=hidden;rotatable=0;points=[[0,0.5],[1,0.5]];portConstraint=eastwest;" parent="QECHB9NjO16_AEo7jIQd-13" vertex="1">
          <mxGeometry y="60" width="380" height="50" as="geometry" />
        </mxCell>
        <mxCell id="QECHB9NjO16_AEo7jIQd-115" style="edgeStyle=orthogonalEdgeStyle;rounded=0;orthogonalLoop=1;jettySize=auto;html=1;entryX=0.518;entryY=0.997;entryDx=0;entryDy=0;entryPerimeter=0;endArrow=block;endFill=0;fontColor=#000000;" parent="1" source="ZotxuuK5Ct2Fdhp2b5MH-27" target="ZotxuuK5Ct2Fdhp2b5MH-26" edge="1">
          <mxGeometry relative="1" as="geometry" />
        </mxCell>
        <mxCell id="ZotxuuK5Ct2Fdhp2b5MH-27" value="Ui" style="swimlane;fontStyle=1;align=center;verticalAlign=top;childLayout=stackLayout;horizontal=1;startSize=26;horizontalStack=0;resizeParent=1;resizeParentMax=0;resizeLast=0;collapsible=1;marginBottom=0;" parent="1" vertex="1">
          <mxGeometry x="775" y="530" width="320" height="230" as="geometry" />
        </mxCell>
        <mxCell id="ZotxuuK5Ct2Fdhp2b5MH-29" value="" style="line;strokeWidth=1;fillColor=none;align=left;verticalAlign=middle;spacingTop=-1;spacingLeft=3;spacingRight=3;rotatable=0;labelPosition=right;points=[];portConstraint=eastwest;" parent="ZotxuuK5Ct2Fdhp2b5MH-27" vertex="1">
          <mxGeometry y="26" width="320" height="8" as="geometry" />
        </mxCell>
        <mxCell id="ZotxuuK5Ct2Fdhp2b5MH-30" value="+colorRed(input: int)&#xa;+colorGreen(input: int)&#xa;+printBorderline(input: int)&#xa;+printGreeting()&#xa;+printHelp()&#xa;+printFarewell()&#xa;+printProjectCreated(projects: ProjectList)&#xa;+printProjectRemoved(projects: ProjectList, index: int)&#xa;+printInvalidCommand()&#xa;+printNoFileFound()&#xa;+printFileExists()&#xa;+printAddMessage(projects: ProjectList)&#xa;+printEditMessage(projects: ProjectList)" style="text;strokeColor=none;fillColor=none;align=left;verticalAlign=top;spacingLeft=4;spacingRight=4;overflow=hidden;rotatable=0;points=[[0,0.5],[1,0.5]];portConstraint=eastwest;" parent="ZotxuuK5Ct2Fdhp2b5MH-27" vertex="1">
          <mxGeometry y="34" width="320" height="196" as="geometry" />
        </mxCell>
        <mxCell id="QECHB9NjO16_AEo7jIQd-111" style="edgeStyle=orthogonalEdgeStyle;rounded=0;orthogonalLoop=1;jettySize=auto;html=1;entryX=0.553;entryY=1;entryDx=0;entryDy=0;entryPerimeter=0;endArrow=block;endFill=0;fontColor=#000000;" parent="1" source="QECHB9NjO16_AEo7jIQd-46" target="QECHB9NjO16_AEo7jIQd-110" edge="1">
          <mxGeometry relative="1" as="geometry" />
        </mxCell>
        <mxCell id="QECHB9NjO16_AEo7jIQd-46" value="TrackerException" style="swimlane;fontStyle=1;align=center;verticalAlign=top;childLayout=stackLayout;horizontal=1;startSize=26;horizontalStack=0;resizeParent=1;resizeParentMax=0;resizeLast=0;collapsible=1;marginBottom=0;" parent="1" vertex="1">
          <mxGeometry x="1550" y="140" width="240" height="64" as="geometry" />
        </mxCell>
        <mxCell id="QECHB9NjO16_AEo7jIQd-48" value="" style="line;strokeWidth=1;fillColor=none;align=left;verticalAlign=middle;spacingTop=-1;spacingLeft=3;spacingRight=3;rotatable=0;labelPosition=right;points=[];portConstraint=eastwest;" parent="QECHB9NjO16_AEo7jIQd-46" vertex="1">
          <mxGeometry y="26" width="240" height="8" as="geometry" />
        </mxCell>
        <mxCell id="QECHB9NjO16_AEo7jIQd-49" value="+ TrackerException(input:String)" style="text;strokeColor=none;fillColor=none;align=left;verticalAlign=top;spacingLeft=4;spacingRight=4;overflow=hidden;rotatable=0;points=[[0,0.5],[1,0.5]];portConstraint=eastwest;" parent="QECHB9NjO16_AEo7jIQd-46" vertex="1">
          <mxGeometry y="34" width="240" height="30" as="geometry" />
        </mxCell>
        <mxCell id="QECHB9NjO16_AEo7jIQd-116" style="edgeStyle=orthogonalEdgeStyle;rounded=0;orthogonalLoop=1;jettySize=auto;html=1;entryX=1;entryY=0.5;entryDx=0;entryDy=0;endArrow=block;endFill=0;fontColor=#000000;exitX=0.5;exitY=0;exitDx=0;exitDy=0;" parent="1" source="ZotxuuK5Ct2Fdhp2b5MH-35" target="ZotxuuK5Ct2Fdhp2b5MH-24" edge="1">
          <mxGeometry relative="1" as="geometry" />
        </mxCell>
        <mxCell id="QECHB9NjO16_AEo7jIQd-117" style="edgeStyle=orthogonalEdgeStyle;rounded=0;orthogonalLoop=1;jettySize=auto;html=1;endArrow=block;endFill=0;fontColor=#000000;" parent="1" source="QECHB9NjO16_AEo7jIQd-51" edge="1">
          <mxGeometry relative="1" as="geometry">
            <mxPoint x="1650" y="470" as="targetPoint" />
          </mxGeometry>
        </mxCell>
        <mxCell id="QECHB9NjO16_AEo7jIQd-30" value="Delete" style="swimlane;fontStyle=1;align=center;verticalAlign=top;childLayout=stackLayout;horizontal=1;startSize=26;horizontalStack=0;resizeParent=1;resizeParentMax=0;resizeLast=0;collapsible=1;marginBottom=0;" parent="1" vertex="1">
          <mxGeometry x="1720" y="1220" width="380" height="110" as="geometry" />
        </mxCell>
        <mxCell id="QECHB9NjO16_AEo7jIQd-31" value="+word: String" style="text;strokeColor=none;fillColor=none;align=left;verticalAlign=top;spacingLeft=4;spacingRight=4;overflow=hidden;rotatable=0;points=[[0,0.5],[1,0.5]];portConstraint=eastwest;" parent="QECHB9NjO16_AEo7jIQd-30" vertex="1">
          <mxGeometry y="26" width="380" height="22" as="geometry" />
        </mxCell>
        <mxCell id="QECHB9NjO16_AEo7jIQd-32" value="" style="line;strokeWidth=1;fillColor=none;align=left;verticalAlign=middle;spacingTop=-1;spacingLeft=3;spacingRight=3;rotatable=0;labelPosition=right;points=[];portConstraint=eastwest;" parent="QECHB9NjO16_AEo7jIQd-30" vertex="1">
          <mxGeometry y="48" width="380" height="8" as="geometry" />
        </mxCell>
        <mxCell id="QECHB9NjO16_AEo7jIQd-33" value="+Delete(line: String, projects: ProjectList, ui: Ui, storage: Storage)&#xa;+execute()" style="text;strokeColor=none;fillColor=none;align=left;verticalAlign=top;spacingLeft=4;spacingRight=4;overflow=hidden;rotatable=0;points=[[0,0.5],[1,0.5]];portConstraint=eastwest;" parent="QECHB9NjO16_AEo7jIQd-30" vertex="1">
          <mxGeometry y="56" width="380" height="54" as="geometry" />
        </mxCell>
        <mxCell id="QECHB9NjO16_AEo7jIQd-17" value="List" style="swimlane;fontStyle=1;align=center;verticalAlign=top;childLayout=stackLayout;horizontal=1;startSize=26;horizontalStack=0;resizeParent=1;resizeParentMax=0;resizeLast=0;collapsible=1;marginBottom=0;" parent="1" vertex="1">
          <mxGeometry x="1080" y="1225" width="190" height="100" as="geometry" />
        </mxCell>
        <mxCell id="QECHB9NjO16_AEo7jIQd-18" value="+word: String" style="text;strokeColor=none;fillColor=none;align=left;verticalAlign=top;spacingLeft=4;spacingRight=4;overflow=hidden;rotatable=0;points=[[0,0.5],[1,0.5]];portConstraint=eastwest;" parent="QECHB9NjO16_AEo7jIQd-17" vertex="1">
          <mxGeometry y="26" width="190" height="26" as="geometry" />
        </mxCell>
        <mxCell id="QECHB9NjO16_AEo7jIQd-19" value="" style="line;strokeWidth=1;fillColor=none;align=left;verticalAlign=middle;spacingTop=-1;spacingLeft=3;spacingRight=3;rotatable=0;labelPosition=right;points=[];portConstraint=eastwest;" parent="QECHB9NjO16_AEo7jIQd-17" vertex="1">
          <mxGeometry y="52" width="190" height="8" as="geometry" />
        </mxCell>
        <mxCell id="QECHB9NjO16_AEo7jIQd-20" value="+List(projects: ProjectList, ui: Ui)&#xa;+execute()" style="text;strokeColor=none;fillColor=none;align=left;verticalAlign=top;spacingLeft=4;spacingRight=4;overflow=hidden;rotatable=0;points=[[0,0.5],[1,0.5]];portConstraint=eastwest;" parent="QECHB9NjO16_AEo7jIQd-17" vertex="1">
          <mxGeometry y="60" width="190" height="40" as="geometry" />
        </mxCell>
        <mxCell id="QECHB9NjO16_AEo7jIQd-101" style="edgeStyle=orthogonalEdgeStyle;rounded=0;orthogonalLoop=1;jettySize=auto;html=1;endArrow=block;endFill=0;fontColor=#000000;" parent="1" source="QECHB9NjO16_AEo7jIQd-38" target="ZotxuuK5Ct2Fdhp2b5MH-13" edge="1">
          <mxGeometry relative="1" as="geometry" />
        </mxCell>
        <mxCell id="QECHB9NjO16_AEo7jIQd-38" value="Exit" style="swimlane;fontStyle=1;align=center;verticalAlign=top;childLayout=stackLayout;horizontal=1;startSize=26;horizontalStack=0;resizeParent=1;resizeParentMax=0;resizeLast=0;collapsible=1;marginBottom=0;" parent="1" vertex="1">
          <mxGeometry x="2300" y="1220" width="130" height="100" as="geometry" />
        </mxCell>
        <mxCell id="QECHB9NjO16_AEo7jIQd-39" value="+word: String" style="text;strokeColor=none;fillColor=none;align=left;verticalAlign=top;spacingLeft=4;spacingRight=4;overflow=hidden;rotatable=0;points=[[0,0.5],[1,0.5]];portConstraint=eastwest;" parent="QECHB9NjO16_AEo7jIQd-38" vertex="1">
          <mxGeometry y="26" width="130" height="26" as="geometry" />
        </mxCell>
        <mxCell id="QECHB9NjO16_AEo7jIQd-40" value="" style="line;strokeWidth=1;fillColor=none;align=left;verticalAlign=middle;spacingTop=-1;spacingLeft=3;spacingRight=3;rotatable=0;labelPosition=right;points=[];portConstraint=eastwest;" parent="QECHB9NjO16_AEo7jIQd-38" vertex="1">
          <mxGeometry y="52" width="130" height="8" as="geometry" />
        </mxCell>
        <mxCell id="QECHB9NjO16_AEo7jIQd-41" value="+Exit(ui: Ui)&#xa;+execute()" style="text;strokeColor=none;fillColor=none;align=left;verticalAlign=top;spacingLeft=4;spacingRight=4;overflow=hidden;rotatable=0;points=[[0,0.5],[1,0.5]];portConstraint=eastwest;" parent="QECHB9NjO16_AEo7jIQd-38" vertex="1">
          <mxGeometry y="60" width="130" height="40" as="geometry" />
        </mxCell>
        <mxCell id="QECHB9NjO16_AEo7jIQd-9" value="Invalid" style="swimlane;fontStyle=1;align=center;verticalAlign=top;childLayout=stackLayout;horizontal=1;startSize=26;horizontalStack=0;resizeParent=1;resizeParentMax=0;resizeLast=0;collapsible=1;marginBottom=0;" parent="1" vertex="1">
          <mxGeometry x="520" y="1230" width="160" height="70" as="geometry" />
        </mxCell>
        <mxCell id="QECHB9NjO16_AEo7jIQd-11" value="" style="line;strokeWidth=1;fillColor=none;align=left;verticalAlign=middle;spacingTop=-1;spacingLeft=3;spacingRight=3;rotatable=0;labelPosition=right;points=[];portConstraint=eastwest;" parent="QECHB9NjO16_AEo7jIQd-9" vertex="1">
          <mxGeometry y="26" width="160" height="8" as="geometry" />
        </mxCell>
        <mxCell id="QECHB9NjO16_AEo7jIQd-12" value="+Invalid(ui: Ui)&#xa;+execute()" style="text;strokeColor=none;fillColor=none;align=left;verticalAlign=top;spacingLeft=4;spacingRight=4;overflow=hidden;rotatable=0;points=[[0,0.5],[1,0.5]];portConstraint=eastwest;" parent="QECHB9NjO16_AEo7jIQd-9" vertex="1">
          <mxGeometry y="34" width="160" height="36" as="geometry" />
        </mxCell>
        <mxCell id="QECHB9NjO16_AEo7jIQd-118" style="edgeStyle=orthogonalEdgeStyle;rounded=0;orthogonalLoop=1;jettySize=auto;html=1;endArrow=block;endFill=0;fontColor=#000000;" parent="1" source="QECHB9NjO16_AEo7jIQd-59" edge="1">
          <mxGeometry relative="1" as="geometry">
            <mxPoint x="1660" y="650" as="targetPoint" />
          </mxGeometry>
        </mxCell>
        <mxCell id="QECHB9NjO16_AEo7jIQd-85" value="" style="endArrow=none;html=1;fontColor=#000000;" parent="1" edge="1">
          <mxGeometry width="50" height="50" relative="1" as="geometry">
            <mxPoint x="610" y="1225" as="sourcePoint" />
            <mxPoint x="610" y="1065" as="targetPoint" />
            <Array as="points">
              <mxPoint x="610" y="1145" />
            </Array>
          </mxGeometry>
        </mxCell>
        <mxCell id="QECHB9NjO16_AEo7jIQd-89" style="edgeStyle=orthogonalEdgeStyle;rounded=0;orthogonalLoop=1;jettySize=auto;html=1;endArrow=block;endFill=0;fontColor=#000000;" parent="1" edge="1">
          <mxGeometry relative="1" as="geometry">
            <mxPoint x="1315" y="1040" as="targetPoint" />
            <mxPoint x="1270" y="1275" as="sourcePoint" />
          </mxGeometry>
        </mxCell>
        <mxCell id="QECHB9NjO16_AEo7jIQd-97" value="" style="endArrow=none;html=1;fontColor=#000000;" parent="1" edge="1">
          <mxGeometry width="50" height="50" relative="1" as="geometry">
            <mxPoint x="899" y="1085" as="sourcePoint" />
            <mxPoint x="899" y="1065" as="targetPoint" />
            <Array as="points">
              <mxPoint x="899" y="1075" />
            </Array>
          </mxGeometry>
        </mxCell>
        <mxCell id="QECHB9NjO16_AEo7jIQd-99" value="" style="endArrow=none;html=1;fontColor=#000000;" parent="1" edge="1">
          <mxGeometry width="50" height="50" relative="1" as="geometry">
            <mxPoint x="1690" y="1085" as="sourcePoint" />
            <mxPoint x="1690" y="1065" as="targetPoint" />
            <Array as="points">
              <mxPoint x="1690" y="1065" />
            </Array>
          </mxGeometry>
        </mxCell>
        <mxCell id="QECHB9NjO16_AEo7jIQd-100" value="" style="endArrow=none;html=1;fontColor=#000000;" parent="1" edge="1">
          <mxGeometry width="50" height="50" relative="1" as="geometry">
            <mxPoint x="1890" y="1225" as="sourcePoint" />
            <mxPoint x="1890" y="1065" as="targetPoint" />
          </mxGeometry>
        </mxCell>
        <mxCell id="QECHB9NjO16_AEo7jIQd-104" value="Extend" style="text;html=1;align=center;verticalAlign=middle;resizable=0;points=[];autosize=1;fontColor=#000000;" parent="1" vertex="1">
          <mxGeometry x="1550" y="920" width="50" height="20" as="geometry" />
        </mxCell>
        <mxCell id="QECHB9NjO16_AEo7jIQd-105" value="Extend" style="text;html=1;align=center;verticalAlign=middle;resizable=0;points=[];autosize=1;fontColor=#000000;" parent="1" vertex="1">
          <mxGeometry x="1310" y="1135" width="50" height="20" as="geometry" />
        </mxCell>
        <mxCell id="QECHB9NjO16_AEo7jIQd-106" value="Extend" style="text;html=1;align=center;verticalAlign=middle;resizable=0;points=[];autosize=1;fontColor=#000000;" parent="1" vertex="1">
          <mxGeometry x="1680" y="1040" width="50" height="20" as="geometry" />
        </mxCell>
        <mxCell id="QECHB9NjO16_AEo7jIQd-107" value="Extend" style="text;html=1;align=center;verticalAlign=middle;resizable=0;points=[];autosize=1;fontColor=#000000;" parent="1" vertex="1">
          <mxGeometry x="790" y="880" width="50" height="20" as="geometry" />
        </mxCell>
        <mxCell id="QECHB9NjO16_AEo7jIQd-109" value="Extend" style="text;html=1;align=center;verticalAlign=middle;resizable=0;points=[];autosize=1;fontColor=#000000;" parent="1" vertex="1">
          <mxGeometry x="910" y="1040" width="50" height="20" as="geometry" />
        </mxCell>
        <mxCell id="QECHB9NjO16_AEo7jIQd-110" value="Exception" style="whiteSpace=wrap;html=1;fontColor=#000000;" parent="1" vertex="1">
          <mxGeometry x="1565" y="60" width="190" height="30" as="geometry" />
        </mxCell>
        <mxCell id="QECHB9NjO16_AEo7jIQd-113" style="edgeStyle=orthogonalEdgeStyle;rounded=0;orthogonalLoop=1;jettySize=auto;html=1;endArrow=block;endFill=0;fontColor=#000000;entryX=0;entryY=0.5;entryDx=0;entryDy=0;" parent="1" source="ZotxuuK5Ct2Fdhp2b5MH-42" target="ZotxuuK5Ct2Fdhp2b5MH-24" edge="1">
          <mxGeometry relative="1" as="geometry">
            <mxPoint x="960" y="249" as="targetPoint" />
          </mxGeometry>
        </mxCell>
        <mxCell id="QECHB9NjO16_AEo7jIQd-119" value="extend" style="text;html=1;align=center;verticalAlign=middle;resizable=0;points=[];autosize=1;fontColor=#000000;" parent="1" vertex="1">
          <mxGeometry x="1660" y="660" width="50" height="20" as="geometry" />
        </mxCell>
        <mxCell id="QECHB9NjO16_AEo7jIQd-59" value="NewProject" style="swimlane;fontStyle=1;align=center;verticalAlign=top;childLayout=stackLayout;horizontal=1;startSize=26;horizontalStack=0;resizeParent=1;resizeParentMax=0;resizeLast=0;collapsible=1;marginBottom=0;fontColor=#000000;" parent="1" vertex="1">
          <mxGeometry x="1540" y="730" width="240" height="90" as="geometry" />
        </mxCell>
        <mxCell id="QECHB9NjO16_AEo7jIQd-61" value="" style="line;strokeWidth=1;fillColor=none;align=left;verticalAlign=middle;spacingTop=-1;spacingLeft=3;spacingRight=3;rotatable=0;labelPosition=right;points=[];portConstraint=eastwest;" parent="QECHB9NjO16_AEo7jIQd-59" vertex="1">
          <mxGeometry y="26" width="240" height="8" as="geometry" />
        </mxCell>
        <mxCell id="QECHB9NjO16_AEo7jIQd-62" value="+NewProject(description: String)&#xa;+toString()" style="text;strokeColor=none;fillColor=none;align=left;verticalAlign=top;spacingLeft=4;spacingRight=4;overflow=hidden;rotatable=0;points=[[0,0.5],[1,0.5]];portConstraint=eastwest;" parent="QECHB9NjO16_AEo7jIQd-59" vertex="1">
          <mxGeometry y="34" width="240" height="56" as="geometry" />
        </mxCell>
        <mxCell id="QECHB9NjO16_AEo7jIQd-51" value="Project" style="swimlane;fontStyle=1;align=center;verticalAlign=top;childLayout=stackLayout;horizontal=1;startSize=26;horizontalStack=0;resizeParent=1;resizeParentMax=0;resizeLast=0;collapsible=1;marginBottom=0;fontColor=#000000;" parent="1" vertex="1">
          <mxGeometry x="1570" y="520" width="160" height="130" as="geometry" />
        </mxCell>
        <mxCell id="QECHB9NjO16_AEo7jIQd-52" value="-description : String" style="text;strokeColor=none;fillColor=none;align=left;verticalAlign=top;spacingLeft=4;spacingRight=4;overflow=hidden;rotatable=0;points=[[0,0.5],[1,0.5]];portConstraint=eastwest;" parent="QECHB9NjO16_AEo7jIQd-51" vertex="1">
          <mxGeometry y="26" width="160" height="26" as="geometry" />
        </mxCell>
        <mxCell id="QECHB9NjO16_AEo7jIQd-53" value="" style="line;strokeWidth=1;fillColor=none;align=left;verticalAlign=middle;spacingTop=-1;spacingLeft=3;spacingRight=3;rotatable=0;labelPosition=right;points=[];portConstraint=eastwest;" parent="QECHB9NjO16_AEo7jIQd-51" vertex="1">
          <mxGeometry y="52" width="160" height="8" as="geometry" />
        </mxCell>
        <mxCell id="QECHB9NjO16_AEo7jIQd-54" value="+Project(description: String)&#xa;+getDescription()&#xa;+toString()" style="text;strokeColor=none;fillColor=none;align=left;verticalAlign=top;spacingLeft=4;spacingRight=4;overflow=hidden;rotatable=0;points=[[0,0.5],[1,0.5]];portConstraint=eastwest;" parent="QECHB9NjO16_AEo7jIQd-51" vertex="1">
          <mxGeometry y="60" width="160" height="70" as="geometry" />
        </mxCell>
        <mxCell id="ZotxuuK5Ct2Fdhp2b5MH-35" value="projectList" style="swimlane;fontStyle=1;align=center;verticalAlign=top;childLayout=stackLayout;horizontal=1;startSize=26;horizontalStack=0;resizeParent=1;resizeParentMax=0;resizeLast=0;collapsible=1;marginBottom=0;" parent="1" vertex="1">
          <mxGeometry x="1540" y="300" width="240" height="170" as="geometry" />
        </mxCell>
        <mxCell id="ZotxuuK5Ct2Fdhp2b5MH-36" value="-projects: ArrayList&lt;Project&gt;" style="text;strokeColor=none;fillColor=none;align=left;verticalAlign=top;spacingLeft=4;spacingRight=4;overflow=hidden;rotatable=0;points=[[0,0.5],[1,0.5]];portConstraint=eastwest;" parent="ZotxuuK5Ct2Fdhp2b5MH-35" vertex="1">
          <mxGeometry y="26" width="240" height="26" as="geometry" />
        </mxCell>
        <mxCell id="ZotxuuK5Ct2Fdhp2b5MH-37" value="" style="line;strokeWidth=1;fillColor=none;align=left;verticalAlign=middle;spacingTop=-1;spacingLeft=3;spacingRight=3;rotatable=0;labelPosition=right;points=[];portConstraint=eastwest;" parent="ZotxuuK5Ct2Fdhp2b5MH-35" vertex="1">
          <mxGeometry y="52" width="240" height="8" as="geometry" />
        </mxCell>
        <mxCell id="ZotxuuK5Ct2Fdhp2b5MH-38" value="+ProjectList()&#xa;+size(): int&#xa;+add(project: Project)&#xa;+set(index: int, project: Project)&#xa;+remove(index: int)&#xa;+get(index: int): Project" style="text;strokeColor=none;fillColor=none;align=left;verticalAlign=top;spacingLeft=4;spacingRight=4;overflow=hidden;rotatable=0;points=[[0,0.5],[1,0.5]];portConstraint=eastwest;" parent="ZotxuuK5Ct2Fdhp2b5MH-35" vertex="1">
          <mxGeometry y="60" width="240" height="110" as="geometry" />
        </mxCell>
        <mxCell id="OVs7Qe9BLMRRqrpmWrxC-1" value="Send" style="swimlane;fontStyle=1;align=center;verticalAlign=top;childLayout=stackLayout;horizontal=1;startSize=26;horizontalStack=0;resizeParent=1;resizeParentMax=0;resizeLast=0;collapsible=1;marginBottom=0;" parent="1" vertex="1">
          <mxGeometry x="1375" y="1225" width="190" height="100" as="geometry" />
        </mxCell>
        <mxCell id="OVs7Qe9BLMRRqrpmWrxC-2" value="+word: String" style="text;strokeColor=none;fillColor=none;align=left;verticalAlign=top;spacingLeft=4;spacingRight=4;overflow=hidden;rotatable=0;points=[[0,0.5],[1,0.5]];portConstraint=eastwest;" parent="OVs7Qe9BLMRRqrpmWrxC-1" vertex="1">
          <mxGeometry y="26" width="190" height="26" as="geometry" />
        </mxCell>
        <mxCell id="OVs7Qe9BLMRRqrpmWrxC-3" value="" style="line;strokeWidth=1;fillColor=none;align=left;verticalAlign=middle;spacingTop=-1;spacingLeft=3;spacingRight=3;rotatable=0;labelPosition=right;points=[];portConstraint=eastwest;" parent="OVs7Qe9BLMRRqrpmWrxC-1" vertex="1">
          <mxGeometry y="52" width="190" height="8" as="geometry" />
        </mxCell>
        <mxCell id="OVs7Qe9BLMRRqrpmWrxC-4" value="+Send(projects: ProjectList, ui: Ui)&#xa;+execute()" style="text;strokeColor=none;fillColor=none;align=left;verticalAlign=top;spacingLeft=4;spacingRight=4;overflow=hidden;rotatable=0;points=[[0,0.5],[1,0.5]];portConstraint=eastwest;" parent="OVs7Qe9BLMRRqrpmWrxC-1" vertex="1">
          <mxGeometry y="60" width="190" height="40" as="geometry" />
        </mxCell>
        <mxCell id="OVs7Qe9BLMRRqrpmWrxC-5" style="edgeStyle=orthogonalEdgeStyle;rounded=0;orthogonalLoop=1;jettySize=auto;html=1;endArrow=block;endFill=0;fontColor=#000000;" parent="1" edge="1">
          <mxGeometry relative="1" as="geometry">
            <mxPoint x="1325" y="1040" as="targetPoint" />
            <mxPoint x="1374" y="1274" as="sourcePoint" />
          </mxGeometry>
        </mxCell>
        <mxCell id="OVs7Qe9BLMRRqrpmWrxC-7" value="DateConverter" style="swimlane;fontStyle=1;align=center;verticalAlign=top;childLayout=stackLayout;horizontal=1;startSize=26;horizontalStack=0;resizeParent=1;resizeParentMax=0;resizeLast=0;collapsible=1;marginBottom=0;" parent="1" vertex="1">
          <mxGeometry x="1840" y="300" width="300" height="240" as="geometry" />
        </mxCell>
        <mxCell id="OVs7Qe9BLMRRqrpmWrxC-8" value="- startDate String&#xa;- dueDate String&#xa;- dateDiff String&#xa;- dysLeft String" style="text;strokeColor=none;fillColor=none;align=left;verticalAlign=top;spacingLeft=4;spacingRight=4;overflow=hidden;rotatable=0;points=[[0,0.5],[1,0.5]];portConstraint=eastwest;" parent="OVs7Qe9BLMRRqrpmWrxC-7" vertex="1">
          <mxGeometry y="26" width="300" height="74" as="geometry" />
        </mxCell>
        <mxCell id="OVs7Qe9BLMRRqrpmWrxC-9" value="" style="line;strokeWidth=1;fillColor=none;align=left;verticalAlign=middle;spacingTop=-1;spacingLeft=3;spacingRight=3;rotatable=0;labelPosition=right;points=[];portConstraint=eastwest;" parent="OVs7Qe9BLMRRqrpmWrxC-7" vertex="1">
          <mxGeometry y="100" width="300" height="20" as="geometry" />
        </mxCell>
        <mxCell id="OVs7Qe9BLMRRqrpmWrxC-10" value="+DateConverter(String startDate, String dueDate)&#xa;+DateConverter(String dueDate)&#xa;+setDateDiff()&#xa;+setDaysLeft()&#xa;+dateConverter(String dateInString)&#xa;+calculateDateDiff(String startDate, String endDate)&#xa;-getDateDiff()&#xa;-getDaysLeft()" style="text;strokeColor=none;fillColor=none;align=left;verticalAlign=top;spacingLeft=4;spacingRight=4;overflow=hidden;rotatable=0;points=[[0,0.5],[1,0.5]];portConstraint=eastwest;" parent="OVs7Qe9BLMRRqrpmWrxC-7" vertex="1">
          <mxGeometry y="120" width="300" height="120" as="geometry" />
        </mxCell>
        <mxCell id="OVs7Qe9BLMRRqrpmWrxC-18" value="SendEmail" style="swimlane;fontStyle=1;align=center;verticalAlign=top;childLayout=stackLayout;horizontal=1;startSize=26;horizontalStack=0;resizeParent=1;resizeParentMax=0;resizeLast=0;collapsible=1;marginBottom=0;" parent="1" vertex="1">
          <mxGeometry x="1180" y="530" width="250" height="138" as="geometry" />
        </mxCell>
        <mxCell id="OVs7Qe9BLMRRqrpmWrxC-19" value="+ receiver: String&#xa;+ messages : String" style="text;strokeColor=none;fillColor=none;align=left;verticalAlign=top;spacingLeft=4;spacingRight=4;overflow=hidden;rotatable=0;points=[[0,0.5],[1,0.5]];portConstraint=eastwest;" parent="OVs7Qe9BLMRRqrpmWrxC-18" vertex="1">
          <mxGeometry y="26" width="250" height="44" as="geometry" />
        </mxCell>
        <mxCell id="OVs7Qe9BLMRRqrpmWrxC-20" value="" style="line;strokeWidth=1;fillColor=none;align=left;verticalAlign=middle;spacingTop=-1;spacingLeft=3;spacingRight=3;rotatable=0;labelPosition=right;points=[];portConstraint=eastwest;" parent="OVs7Qe9BLMRRqrpmWrxC-18" vertex="1">
          <mxGeometry y="70" width="250" height="8" as="geometry" />
        </mxCell>
        <mxCell id="OVs7Qe9BLMRRqrpmWrxC-21" value="+sendEmail()&#xa;" style="text;strokeColor=none;fillColor=none;align=left;verticalAlign=top;spacingLeft=4;spacingRight=4;overflow=hidden;rotatable=0;points=[[0,0.5],[1,0.5]];portConstraint=eastwest;" parent="OVs7Qe9BLMRRqrpmWrxC-18" vertex="1">
          <mxGeometry y="78" width="250" height="60" as="geometry" />
        </mxCell>
        <mxCell id="OVs7Qe9BLMRRqrpmWrxC-22" style="edgeStyle=orthogonalEdgeStyle;rounded=0;orthogonalLoop=1;jettySize=auto;html=1;entryX=0.685;entryY=0.998;entryDx=0;entryDy=0;entryPerimeter=0;endArrow=block;endFill=0;fontColor=#000000;exitX=0.5;exitY=0;exitDx=0;exitDy=0;" parent="1" source="OVs7Qe9BLMRRqrpmWrxC-18" target="ZotxuuK5Ct2Fdhp2b5MH-26" edge="1">
          <mxGeometry relative="1" as="geometry">
            <mxPoint x="945" y="540" as="sourcePoint" />
            <mxPoint x="1119.8799999999997" y="390" as="targetPoint" />
          </mxGeometry>
        </mxCell>
        <mxCell id="_Dt7mTBSmzeAj84fwamO-1" style="edgeStyle=orthogonalEdgeStyle;rounded=0;orthogonalLoop=1;jettySize=auto;html=1;entryX=0.913;entryY=0.003;entryDx=0;entryDy=0;entryPerimeter=0;endArrow=block;endFill=0;fontColor=#000000;exitX=0;exitY=0.5;exitDx=0;exitDy=0;" parent="1" source="QECHB9NjO16_AEo7jIQd-110" target="ZotxuuK5Ct2Fdhp2b5MH-23" edge="1">
          <mxGeometry relative="1" as="geometry">
            <mxPoint x="1659.22" y="108.98000000000002" as="sourcePoint" />
            <mxPoint x="899.9999999999998" y="41.01999999999998" as="targetPoint" />
          </mxGeometry>
        </mxCell>
        <mxCell id="_Dt7mTBSmzeAj84fwamO-2" style="edgeStyle=orthogonalEdgeStyle;rounded=0;orthogonalLoop=1;jettySize=auto;html=1;entryX=0.604;entryY=1;entryDx=0;entryDy=0;entryPerimeter=0;endArrow=block;endFill=0;fontColor=#000000;exitX=0.5;exitY=0;exitDx=0;exitDy=0;" parent="1" source="ZotxuuK5Ct2Fdhp2b5MH-11" target="ZotxuuK5Ct2Fdhp2b5MH-26" edge="1">
          <mxGeometry relative="1" as="geometry">
            <mxPoint x="1296.9" y="760.16" as="sourcePoint" />
            <mxPoint x="1140.0000000000005" y="609.996" as="targetPoint" />
            <Array as="points">
              <mxPoint x="1300" y="710" />
              <mxPoint x="1127" y="710" />
            </Array>
          </mxGeometry>
        </mxCell>
        <mxCell id="UFJXbDYz8W7_IxYbsByH-1" value="" style="endArrow=block;endSize=16;endFill=0;html=1;" parent="1" edge="1">
          <mxGeometry width="160" relative="1" as="geometry">
            <mxPoint x="1840" y="1080" as="sourcePoint" />
            <mxPoint x="1840" y="540" as="targetPoint" />
            <Array as="points">
              <mxPoint x="1840" y="750" />
            </Array>
          </mxGeometry>
        </mxCell>
        <mxCell id="UFJXbDYz8W7_IxYbsByH-2" value="" style="endArrow=block;endSize=16;endFill=0;html=1;" parent="1" edge="1">
          <mxGeometry width="160" relative="1" as="geometry">
            <mxPoint x="710" y="490" as="sourcePoint" />
            <mxPoint x="1840" y="490" as="targetPoint" />
          </mxGeometry>
        </mxCell>
        <mxCell id="UFJXbDYz8W7_IxYbsByH-3" value="" style="endArrow=block;endSize=16;endFill=0;html=1;exitX=1.004;exitY=0.67;exitDx=0;exitDy=0;exitPerimeter=0;" parent="1" source="ZotxuuK5Ct2Fdhp2b5MH-30" edge="1">
          <mxGeometry width="160" relative="1" as="geometry">
            <mxPoint x="1095" y="740" as="sourcePoint" />
            <mxPoint x="2000" y="550" as="targetPoint" />
            <Array as="points">
              <mxPoint x="1590" y="695" />
              <mxPoint x="2000" y="695" />
            </Array>
          </mxGeometry>
        </mxCell>
      </root>
    </mxGraphModel>
  </diagram>
  <diagram id="Q1ui6uaNbqwX0ghexBHf" name="Page-2">
    <mxGraphModel dx="1550" dy="736" grid="1" gridSize="10" guides="1" tooltips="1" connect="1" arrows="1" fold="1" page="1" pageScale="1" pageWidth="850" pageHeight="1100" math="0" shadow="0">
      <root>
        <mxCell id="eGwcsCFsJpwvVwXuNJgI-0" />
        <mxCell id="eGwcsCFsJpwvVwXuNJgI-1" parent="eGwcsCFsJpwvVwXuNJgI-0" />
        <mxCell id="W_4NEHFDwLDEl3qYtD4c-0" value="{abstract}&#xa;Command" style="swimlane;fontStyle=3;align=center;verticalAlign=top;childLayout=stackLayout;horizontal=1;startSize=40;horizontalStack=0;resizeParent=1;resizeParentMax=0;resizeLast=0;collapsible=1;marginBottom=0;" vertex="1" parent="eGwcsCFsJpwvVwXuNJgI-1">
          <mxGeometry x="1050" y="20" width="400" height="210" as="geometry" />
        </mxCell>
        <mxCell id="W_4NEHFDwLDEl3qYtD4c-1" value="+line: String&#xa;+projects: ProjectList&#xa;+storage: Storage&#xa;+ui: Ui" style="text;strokeColor=none;fillColor=none;align=left;verticalAlign=top;spacingLeft=4;spacingRight=4;overflow=hidden;rotatable=0;points=[[0,0.5],[1,0.5]];portConstraint=eastwest;" vertex="1" parent="W_4NEHFDwLDEl3qYtD4c-0">
          <mxGeometry y="40" width="400" height="60" as="geometry" />
        </mxCell>
        <mxCell id="W_4NEHFDwLDEl3qYtD4c-2" value="" style="line;strokeWidth=1;fillColor=none;align=left;verticalAlign=middle;spacingTop=-1;spacingLeft=3;spacingRight=3;rotatable=0;labelPosition=right;points=[];portConstraint=eastwest;" vertex="1" parent="W_4NEHFDwLDEl3qYtD4c-0">
          <mxGeometry y="100" width="400" height="28" as="geometry" />
        </mxCell>
        <mxCell id="W_4NEHFDwLDEl3qYtD4c-3" value="#Command(line:String, projects:ProjectList, ui:Ui, storage:Storage)&#xa;#Command(line:String, projects:ProjectList, ui:Ui)&#xa;#Command(projects:ProjectList, ui:Ui)&#xa;#Command(ui:Ui)&#xa;+execute(){abstract}" style="text;strokeColor=none;fillColor=none;align=left;verticalAlign=top;spacingLeft=4;spacingRight=4;overflow=hidden;rotatable=0;points=[[0,0.5],[1,0.5]];portConstraint=eastwest;" vertex="1" parent="W_4NEHFDwLDEl3qYtD4c-0">
          <mxGeometry y="128" width="400" height="82" as="geometry" />
        </mxCell>
        <mxCell id="W_4NEHFDwLDEl3qYtD4c-4" style="edgeStyle=orthogonalEdgeStyle;rounded=0;orthogonalLoop=1;jettySize=auto;html=1;endArrow=block;endFill=0;fontColor=#000000;" edge="1" parent="eGwcsCFsJpwvVwXuNJgI-1" source="W_4NEHFDwLDEl3qYtD4c-5" target="W_4NEHFDwLDEl3qYtD4c-1">
          <mxGeometry relative="1" as="geometry">
            <Array as="points">
              <mxPoint x="90" y="90" />
            </Array>
          </mxGeometry>
        </mxCell>
        <mxCell id="W_4NEHFDwLDEl3qYtD4c-5" value="Help" style="swimlane;fontStyle=1;align=center;verticalAlign=top;childLayout=stackLayout;horizontal=1;startSize=26;horizontalStack=0;resizeParent=1;resizeParentMax=0;resizeLast=0;collapsible=1;marginBottom=0;" vertex="1" parent="eGwcsCFsJpwvVwXuNJgI-1">
          <mxGeometry x="10" y="440" width="160" height="110" as="geometry" />
        </mxCell>
        <mxCell id="W_4NEHFDwLDEl3qYtD4c-6" value="+word: String" style="text;strokeColor=none;fillColor=none;align=left;verticalAlign=top;spacingLeft=4;spacingRight=4;overflow=hidden;rotatable=0;points=[[0,0.5],[1,0.5]];portConstraint=eastwest;" vertex="1" parent="W_4NEHFDwLDEl3qYtD4c-5">
          <mxGeometry y="26" width="160" height="26" as="geometry" />
        </mxCell>
        <mxCell id="W_4NEHFDwLDEl3qYtD4c-7" value="" style="line;strokeWidth=1;fillColor=none;align=left;verticalAlign=middle;spacingTop=-1;spacingLeft=3;spacingRight=3;rotatable=0;labelPosition=right;points=[];portConstraint=eastwest;" vertex="1" parent="W_4NEHFDwLDEl3qYtD4c-5">
          <mxGeometry y="52" width="160" height="8" as="geometry" />
        </mxCell>
        <mxCell id="W_4NEHFDwLDEl3qYtD4c-8" value="+Help(ui: Ui)&#xa;+execute()" style="text;strokeColor=none;fillColor=none;align=left;verticalAlign=top;spacingLeft=4;spacingRight=4;overflow=hidden;rotatable=0;points=[[0,0.5],[1,0.5]];portConstraint=eastwest;" vertex="1" parent="W_4NEHFDwLDEl3qYtD4c-5">
          <mxGeometry y="60" width="160" height="50" as="geometry" />
        </mxCell>
        <mxCell id="W_4NEHFDwLDEl3qYtD4c-9" style="edgeStyle=orthogonalEdgeStyle;rounded=0;orthogonalLoop=1;jettySize=auto;html=1;entryX=0.505;entryY=1.005;entryDx=0;entryDy=0;entryPerimeter=0;endArrow=block;endFill=0;fontColor=#000000;" edge="1" parent="eGwcsCFsJpwvVwXuNJgI-1" source="W_4NEHFDwLDEl3qYtD4c-10" target="W_4NEHFDwLDEl3qYtD4c-3">
          <mxGeometry relative="1" as="geometry" />
        </mxCell>
        <mxCell id="W_4NEHFDwLDEl3qYtD4c-10" value="Add" style="swimlane;fontStyle=1;align=center;verticalAlign=top;childLayout=stackLayout;horizontal=1;startSize=26;horizontalStack=0;resizeParent=1;resizeParentMax=0;resizeLast=0;collapsible=1;marginBottom=0;" vertex="1" parent="eGwcsCFsJpwvVwXuNJgI-1">
          <mxGeometry x="140" y="280" width="350" height="110" as="geometry" />
        </mxCell>
        <mxCell id="W_4NEHFDwLDEl3qYtD4c-11" value="+word: String" style="text;strokeColor=none;fillColor=none;align=left;verticalAlign=top;spacingLeft=4;spacingRight=4;overflow=hidden;rotatable=0;points=[[0,0.5],[1,0.5]];portConstraint=eastwest;" vertex="1" parent="W_4NEHFDwLDEl3qYtD4c-10">
          <mxGeometry y="26" width="350" height="26" as="geometry" />
        </mxCell>
        <mxCell id="W_4NEHFDwLDEl3qYtD4c-12" value="" style="line;strokeWidth=1;fillColor=none;align=left;verticalAlign=middle;spacingTop=-1;spacingLeft=3;spacingRight=3;rotatable=0;labelPosition=right;points=[];portConstraint=eastwest;" vertex="1" parent="W_4NEHFDwLDEl3qYtD4c-10">
          <mxGeometry y="52" width="350" height="8" as="geometry" />
        </mxCell>
        <mxCell id="W_4NEHFDwLDEl3qYtD4c-13" value="+Add(line: String, projects: ProjectList, ui: Ui, storage: Storage)&#xa;+execute()" style="text;strokeColor=none;fillColor=none;align=left;verticalAlign=top;spacingLeft=4;spacingRight=4;overflow=hidden;rotatable=0;points=[[0,0.5],[1,0.5]];portConstraint=eastwest;" vertex="1" parent="W_4NEHFDwLDEl3qYtD4c-10">
          <mxGeometry y="60" width="350" height="50" as="geometry" />
        </mxCell>
        <mxCell id="W_4NEHFDwLDEl3qYtD4c-14" style="edgeStyle=orthogonalEdgeStyle;rounded=0;orthogonalLoop=1;jettySize=auto;html=1;entryX=0.589;entryY=1.005;entryDx=0;entryDy=0;entryPerimeter=0;endArrow=block;endFill=0;fontColor=#000000;" edge="1" parent="eGwcsCFsJpwvVwXuNJgI-1" source="W_4NEHFDwLDEl3qYtD4c-15" target="W_4NEHFDwLDEl3qYtD4c-3">
          <mxGeometry relative="1" as="geometry" />
        </mxCell>
        <mxCell id="W_4NEHFDwLDEl3qYtD4c-15" value="Find" style="swimlane;fontStyle=1;align=center;verticalAlign=top;childLayout=stackLayout;horizontal=1;startSize=26;horizontalStack=0;resizeParent=1;resizeParentMax=0;resizeLast=0;collapsible=1;marginBottom=0;" vertex="1" parent="eGwcsCFsJpwvVwXuNJgI-1">
          <mxGeometry x="1870" y="280" width="360" height="90" as="geometry" />
        </mxCell>
        <mxCell id="W_4NEHFDwLDEl3qYtD4c-16" value="+word: String" style="text;strokeColor=none;fillColor=none;align=left;verticalAlign=top;spacingLeft=4;spacingRight=4;overflow=hidden;rotatable=0;points=[[0,0.5],[1,0.5]];portConstraint=eastwest;" vertex="1" parent="W_4NEHFDwLDEl3qYtD4c-15">
          <mxGeometry y="26" width="360" height="22" as="geometry" />
        </mxCell>
        <mxCell id="W_4NEHFDwLDEl3qYtD4c-17" value="" style="line;strokeWidth=1;fillColor=none;align=left;verticalAlign=middle;spacingTop=-1;spacingLeft=3;spacingRight=3;rotatable=0;labelPosition=right;points=[];portConstraint=eastwest;" vertex="1" parent="W_4NEHFDwLDEl3qYtD4c-15">
          <mxGeometry y="48" width="360" height="8" as="geometry" />
        </mxCell>
        <mxCell id="W_4NEHFDwLDEl3qYtD4c-18" value="+Find(line: String, projects: ProjectList, ui: Ui, storage: Storage)&#xa;+execute()" style="text;strokeColor=none;fillColor=none;align=left;verticalAlign=top;spacingLeft=4;spacingRight=4;overflow=hidden;rotatable=0;points=[[0,0.5],[1,0.5]];portConstraint=eastwest;" vertex="1" parent="W_4NEHFDwLDEl3qYtD4c-15">
          <mxGeometry y="56" width="360" height="34" as="geometry" />
        </mxCell>
        <mxCell id="W_4NEHFDwLDEl3qYtD4c-19" value="Tracker" style="swimlane;fontStyle=1;align=center;verticalAlign=top;childLayout=stackLayout;horizontal=1;startSize=26;horizontalStack=0;resizeParent=1;resizeParentMax=0;resizeLast=0;collapsible=1;marginBottom=0;" vertex="1" parent="eGwcsCFsJpwvVwXuNJgI-1">
          <mxGeometry x="920" y="760" width="260" height="200" as="geometry" />
        </mxCell>
        <mxCell id="W_4NEHFDwLDEl3qYtD4c-20" value="-ui: Ui&#xa;-parser: Parser&#xa;-in: Scanner&#xa;-projects: ProjectList&#xa;-storage: Storage" style="text;strokeColor=none;fillColor=none;align=left;verticalAlign=top;spacingLeft=4;spacingRight=4;overflow=hidden;rotatable=0;points=[[0,0.5],[1,0.5]];portConstraint=eastwest;" vertex="1" parent="W_4NEHFDwLDEl3qYtD4c-19">
          <mxGeometry y="26" width="260" height="84" as="geometry" />
        </mxCell>
        <mxCell id="W_4NEHFDwLDEl3qYtD4c-21" value="" style="line;strokeWidth=1;fillColor=none;align=left;verticalAlign=middle;spacingTop=-1;spacingLeft=3;spacingRight=3;rotatable=0;labelPosition=right;points=[];portConstraint=eastwest;" vertex="1" parent="W_4NEHFDwLDEl3qYtD4c-19">
          <mxGeometry y="110" width="260" height="8" as="geometry" />
        </mxCell>
        <mxCell id="W_4NEHFDwLDEl3qYtD4c-22" value="+main(args:String)&#xa;+run()&#xa;+readUserInput()&#xa;+isExit(command:Command): boolean" style="text;strokeColor=none;fillColor=none;align=left;verticalAlign=top;spacingLeft=4;spacingRight=4;overflow=hidden;rotatable=0;points=[[0,0.5],[1,0.5]];portConstraint=eastwest;" vertex="1" parent="W_4NEHFDwLDEl3qYtD4c-19">
          <mxGeometry y="118" width="260" height="82" as="geometry" />
        </mxCell>
        <mxCell id="W_4NEHFDwLDEl3qYtD4c-23" style="edgeStyle=orthogonalEdgeStyle;rounded=0;orthogonalLoop=1;jettySize=auto;html=1;entryX=0.003;entryY=0.098;entryDx=0;entryDy=0;entryPerimeter=0;endArrow=block;endFill=0;fontColor=#000000;" edge="1" parent="eGwcsCFsJpwvVwXuNJgI-1" source="W_4NEHFDwLDEl3qYtD4c-24" target="W_4NEHFDwLDEl3qYtD4c-22">
          <mxGeometry relative="1" as="geometry" />
        </mxCell>
        <mxCell id="W_4NEHFDwLDEl3qYtD4c-24" value="Storage" style="swimlane;fontStyle=1;align=center;verticalAlign=top;childLayout=stackLayout;horizontal=1;startSize=26;horizontalStack=0;resizeParent=1;resizeParentMax=0;resizeLast=0;collapsible=1;marginBottom=0;" vertex="1" parent="eGwcsCFsJpwvVwXuNJgI-1">
          <mxGeometry x="120" y="1060" width="540" height="210" as="geometry" />
        </mxCell>
        <mxCell id="W_4NEHFDwLDEl3qYtD4c-25" value="-fileName: String" style="text;strokeColor=none;fillColor=none;align=left;verticalAlign=top;spacingLeft=4;spacingRight=4;overflow=hidden;rotatable=0;points=[[0,0.5],[1,0.5]];portConstraint=eastwest;" vertex="1" parent="W_4NEHFDwLDEl3qYtD4c-24">
          <mxGeometry y="26" width="540" height="26" as="geometry" />
        </mxCell>
        <mxCell id="W_4NEHFDwLDEl3qYtD4c-26" value="" style="line;strokeWidth=1;fillColor=none;align=left;verticalAlign=middle;spacingTop=-1;spacingLeft=3;spacingRight=3;rotatable=0;labelPosition=right;points=[];portConstraint=eastwest;" vertex="1" parent="W_4NEHFDwLDEl3qYtD4c-24">
          <mxGeometry y="52" width="540" height="8" as="geometry" />
        </mxCell>
        <mxCell id="W_4NEHFDwLDEl3qYtD4c-27" value="+Storage(fileName: String, projects: ProjectList, ui: Ui)&#xa;+updateStorage(projects: ProjectList)&#xa;+readStorage(projects: ProjectList, ui: Ui, storage: Storage)&#xa;-getLines(fileName: String): ArrayList&lt;String&gt;&#xa;+extractProjects(lines: ArrayList&lt;String&gt;, projects: ProjectList, ui: Ui, storage: Storage): ProjectList" style="text;strokeColor=none;fillColor=none;align=left;verticalAlign=top;spacingLeft=4;spacingRight=4;overflow=hidden;rotatable=0;points=[[0,0.5],[1,0.5]];portConstraint=eastwest;" vertex="1" parent="W_4NEHFDwLDEl3qYtD4c-24">
          <mxGeometry y="60" width="540" height="150" as="geometry" />
        </mxCell>
        <mxCell id="W_4NEHFDwLDEl3qYtD4c-28" value="Parser" style="swimlane;fontStyle=1;align=center;verticalAlign=top;childLayout=stackLayout;horizontal=1;startSize=26;horizontalStack=0;resizeParent=1;resizeParentMax=0;resizeLast=0;collapsible=1;marginBottom=0;" vertex="1" parent="eGwcsCFsJpwvVwXuNJgI-1">
          <mxGeometry x="140" y="770" width="460" height="84" as="geometry" />
        </mxCell>
        <mxCell id="W_4NEHFDwLDEl3qYtD4c-29" value="" style="line;strokeWidth=1;fillColor=none;align=left;verticalAlign=middle;spacingTop=-1;spacingLeft=3;spacingRight=3;rotatable=0;labelPosition=right;points=[];portConstraint=eastwest;" vertex="1" parent="W_4NEHFDwLDEl3qYtD4c-28">
          <mxGeometry y="26" width="460" height="8" as="geometry" />
        </mxCell>
        <mxCell id="W_4NEHFDwLDEl3qYtD4c-30" value="+parseInput(line: String, projects: ProjectList, ui: Ui, storage: Storage): Command" style="text;strokeColor=none;fillColor=none;align=left;verticalAlign=top;spacingLeft=4;spacingRight=4;overflow=hidden;rotatable=0;points=[[0,0.5],[1,0.5]];portConstraint=eastwest;" vertex="1" parent="W_4NEHFDwLDEl3qYtD4c-28">
          <mxGeometry y="34" width="460" height="50" as="geometry" />
        </mxCell>
        <mxCell id="W_4NEHFDwLDEl3qYtD4c-31" value="Create" style="swimlane;fontStyle=1;align=center;verticalAlign=top;childLayout=stackLayout;horizontal=1;startSize=26;horizontalStack=0;resizeParent=1;resizeParentMax=0;resizeLast=0;collapsible=1;marginBottom=0;" vertex="1" parent="eGwcsCFsJpwvVwXuNJgI-1">
          <mxGeometry x="1440" y="275" width="370" height="100" as="geometry" />
        </mxCell>
        <mxCell id="W_4NEHFDwLDEl3qYtD4c-32" value="+word: String" style="text;strokeColor=none;fillColor=none;align=left;verticalAlign=top;spacingLeft=4;spacingRight=4;overflow=hidden;rotatable=0;points=[[0,0.5],[1,0.5]];portConstraint=eastwest;" vertex="1" parent="W_4NEHFDwLDEl3qYtD4c-31">
          <mxGeometry y="26" width="370" height="26" as="geometry" />
        </mxCell>
        <mxCell id="W_4NEHFDwLDEl3qYtD4c-33" value="" style="line;strokeWidth=1;fillColor=none;align=left;verticalAlign=middle;spacingTop=-1;spacingLeft=3;spacingRight=3;rotatable=0;labelPosition=right;points=[];portConstraint=eastwest;" vertex="1" parent="W_4NEHFDwLDEl3qYtD4c-31">
          <mxGeometry y="52" width="370" height="8" as="geometry" />
        </mxCell>
        <mxCell id="W_4NEHFDwLDEl3qYtD4c-34" value="+Project(line: String, projects: ProjectList, ui: Ui, storage: Storage)&#xa;+execute()" style="text;strokeColor=none;fillColor=none;align=left;verticalAlign=top;spacingLeft=4;spacingRight=4;overflow=hidden;rotatable=0;points=[[0,0.5],[1,0.5]];portConstraint=eastwest;" vertex="1" parent="W_4NEHFDwLDEl3qYtD4c-31">
          <mxGeometry y="60" width="370" height="40" as="geometry" />
        </mxCell>
        <mxCell id="W_4NEHFDwLDEl3qYtD4c-35" value="Edit" style="swimlane;fontStyle=1;align=center;verticalAlign=top;childLayout=stackLayout;horizontal=1;startSize=26;horizontalStack=0;resizeParent=1;resizeParentMax=0;resizeLast=0;collapsible=1;marginBottom=0;" vertex="1" parent="eGwcsCFsJpwvVwXuNJgI-1">
          <mxGeometry x="660" y="275" width="380" height="110" as="geometry" />
        </mxCell>
        <mxCell id="W_4NEHFDwLDEl3qYtD4c-36" value="+word: String" style="text;strokeColor=none;fillColor=none;align=left;verticalAlign=top;spacingLeft=4;spacingRight=4;overflow=hidden;rotatable=0;points=[[0,0.5],[1,0.5]];portConstraint=eastwest;" vertex="1" parent="W_4NEHFDwLDEl3qYtD4c-35">
          <mxGeometry y="26" width="380" height="26" as="geometry" />
        </mxCell>
        <mxCell id="W_4NEHFDwLDEl3qYtD4c-37" value="" style="line;strokeWidth=1;fillColor=none;align=left;verticalAlign=middle;spacingTop=-1;spacingLeft=3;spacingRight=3;rotatable=0;labelPosition=right;points=[];portConstraint=eastwest;" vertex="1" parent="W_4NEHFDwLDEl3qYtD4c-35">
          <mxGeometry y="52" width="380" height="8" as="geometry" />
        </mxCell>
        <mxCell id="W_4NEHFDwLDEl3qYtD4c-38" value="+Replace(line: String, projects: ProjectList, ui: Ui, storage: Storage)&#xa;+execute()" style="text;strokeColor=none;fillColor=none;align=left;verticalAlign=top;spacingLeft=4;spacingRight=4;overflow=hidden;rotatable=0;points=[[0,0.5],[1,0.5]];portConstraint=eastwest;" vertex="1" parent="W_4NEHFDwLDEl3qYtD4c-35">
          <mxGeometry y="60" width="380" height="50" as="geometry" />
        </mxCell>
        <mxCell id="W_4NEHFDwLDEl3qYtD4c-39" style="edgeStyle=orthogonalEdgeStyle;rounded=0;orthogonalLoop=1;jettySize=auto;html=1;entryX=0.538;entryY=1;entryDx=0;entryDy=0;entryPerimeter=0;endArrow=block;endFill=0;fontColor=#000000;" edge="1" parent="eGwcsCFsJpwvVwXuNJgI-1" source="W_4NEHFDwLDEl3qYtD4c-40" target="W_4NEHFDwLDEl3qYtD4c-22">
          <mxGeometry relative="1" as="geometry" />
        </mxCell>
        <mxCell id="W_4NEHFDwLDEl3qYtD4c-40" value="Ui" style="swimlane;fontStyle=1;align=center;verticalAlign=top;childLayout=stackLayout;horizontal=1;startSize=26;horizontalStack=0;resizeParent=1;resizeParentMax=0;resizeLast=0;collapsible=1;marginBottom=0;" vertex="1" parent="eGwcsCFsJpwvVwXuNJgI-1">
          <mxGeometry x="725" y="1110" width="320" height="230" as="geometry" />
        </mxCell>
        <mxCell id="W_4NEHFDwLDEl3qYtD4c-41" value="" style="line;strokeWidth=1;fillColor=none;align=left;verticalAlign=middle;spacingTop=-1;spacingLeft=3;spacingRight=3;rotatable=0;labelPosition=right;points=[];portConstraint=eastwest;" vertex="1" parent="W_4NEHFDwLDEl3qYtD4c-40">
          <mxGeometry y="26" width="320" height="8" as="geometry" />
        </mxCell>
        <mxCell id="W_4NEHFDwLDEl3qYtD4c-42" value="+colorRed(input: int)&#xa;+colorGreen(input: int)&#xa;+printBorderline(input: int)&#xa;+printGreeting()&#xa;+printHelp()&#xa;+printFarewell()&#xa;+printProjectCreated(projects: ProjectList)&#xa;+printProjectRemoved(projects: ProjectList, index: int)&#xa;+printInvalidCommand()&#xa;+printNoFileFound()&#xa;+printFileExists()&#xa;+printAddMessage(projects: ProjectList)&#xa;+printReplaceMessage(projects: ProjectList)" style="text;strokeColor=none;fillColor=none;align=left;verticalAlign=top;spacingLeft=4;spacingRight=4;overflow=hidden;rotatable=0;points=[[0,0.5],[1,0.5]];portConstraint=eastwest;" vertex="1" parent="W_4NEHFDwLDEl3qYtD4c-40">
          <mxGeometry y="34" width="320" height="196" as="geometry" />
        </mxCell>
        <mxCell id="W_4NEHFDwLDEl3qYtD4c-43" style="edgeStyle=orthogonalEdgeStyle;rounded=0;orthogonalLoop=1;jettySize=auto;html=1;entryX=0.553;entryY=1;entryDx=0;entryDy=0;entryPerimeter=0;endArrow=block;endFill=0;fontColor=#000000;" edge="1" parent="eGwcsCFsJpwvVwXuNJgI-1" source="W_4NEHFDwLDEl3qYtD4c-44" target="W_4NEHFDwLDEl3qYtD4c-76">
          <mxGeometry relative="1" as="geometry" />
        </mxCell>
        <mxCell id="W_4NEHFDwLDEl3qYtD4c-44" value="TrackerException" style="swimlane;fontStyle=1;align=center;verticalAlign=top;childLayout=stackLayout;horizontal=1;startSize=26;horizontalStack=0;resizeParent=1;resizeParentMax=0;resizeLast=0;collapsible=1;marginBottom=0;" vertex="1" parent="eGwcsCFsJpwvVwXuNJgI-1">
          <mxGeometry x="1500" y="720" width="240" height="64" as="geometry" />
        </mxCell>
        <mxCell id="W_4NEHFDwLDEl3qYtD4c-45" value="" style="line;strokeWidth=1;fillColor=none;align=left;verticalAlign=middle;spacingTop=-1;spacingLeft=3;spacingRight=3;rotatable=0;labelPosition=right;points=[];portConstraint=eastwest;" vertex="1" parent="W_4NEHFDwLDEl3qYtD4c-44">
          <mxGeometry y="26" width="240" height="8" as="geometry" />
        </mxCell>
        <mxCell id="W_4NEHFDwLDEl3qYtD4c-46" value="+ TrackerException(input:String)" style="text;strokeColor=none;fillColor=none;align=left;verticalAlign=top;spacingLeft=4;spacingRight=4;overflow=hidden;rotatable=0;points=[[0,0.5],[1,0.5]];portConstraint=eastwest;" vertex="1" parent="W_4NEHFDwLDEl3qYtD4c-44">
          <mxGeometry y="34" width="240" height="30" as="geometry" />
        </mxCell>
        <mxCell id="W_4NEHFDwLDEl3qYtD4c-47" style="edgeStyle=orthogonalEdgeStyle;rounded=0;orthogonalLoop=1;jettySize=auto;html=1;entryX=1.005;entryY=0.946;entryDx=0;entryDy=0;entryPerimeter=0;endArrow=block;endFill=0;fontColor=#000000;" edge="1" parent="eGwcsCFsJpwvVwXuNJgI-1" source="W_4NEHFDwLDEl3qYtD4c-86" target="W_4NEHFDwLDEl3qYtD4c-22">
          <mxGeometry relative="1" as="geometry">
            <Array as="points">
              <mxPoint x="1181" y="965" />
            </Array>
          </mxGeometry>
        </mxCell>
        <mxCell id="W_4NEHFDwLDEl3qYtD4c-48" style="edgeStyle=orthogonalEdgeStyle;rounded=0;orthogonalLoop=1;jettySize=auto;html=1;endArrow=block;endFill=0;fontColor=#000000;" edge="1" parent="eGwcsCFsJpwvVwXuNJgI-1" source="W_4NEHFDwLDEl3qYtD4c-82">
          <mxGeometry relative="1" as="geometry">
            <mxPoint x="1600" y="1050" as="targetPoint" />
          </mxGeometry>
        </mxCell>
        <mxCell id="W_4NEHFDwLDEl3qYtD4c-49" value="Delete" style="swimlane;fontStyle=1;align=center;verticalAlign=top;childLayout=stackLayout;horizontal=1;startSize=26;horizontalStack=0;resizeParent=1;resizeParentMax=0;resizeLast=0;collapsible=1;marginBottom=0;" vertex="1" parent="eGwcsCFsJpwvVwXuNJgI-1">
          <mxGeometry x="1670" y="410" width="380" height="110" as="geometry" />
        </mxCell>
        <mxCell id="W_4NEHFDwLDEl3qYtD4c-50" value="+word: String" style="text;strokeColor=none;fillColor=none;align=left;verticalAlign=top;spacingLeft=4;spacingRight=4;overflow=hidden;rotatable=0;points=[[0,0.5],[1,0.5]];portConstraint=eastwest;" vertex="1" parent="W_4NEHFDwLDEl3qYtD4c-49">
          <mxGeometry y="26" width="380" height="22" as="geometry" />
        </mxCell>
        <mxCell id="W_4NEHFDwLDEl3qYtD4c-51" value="" style="line;strokeWidth=1;fillColor=none;align=left;verticalAlign=middle;spacingTop=-1;spacingLeft=3;spacingRight=3;rotatable=0;labelPosition=right;points=[];portConstraint=eastwest;" vertex="1" parent="W_4NEHFDwLDEl3qYtD4c-49">
          <mxGeometry y="48" width="380" height="8" as="geometry" />
        </mxCell>
        <mxCell id="W_4NEHFDwLDEl3qYtD4c-52" value="+Delete(line: String, projects: ProjectList, ui: Ui, storage: Storage)&#xa;+execute()" style="text;strokeColor=none;fillColor=none;align=left;verticalAlign=top;spacingLeft=4;spacingRight=4;overflow=hidden;rotatable=0;points=[[0,0.5],[1,0.5]];portConstraint=eastwest;" vertex="1" parent="W_4NEHFDwLDEl3qYtD4c-49">
          <mxGeometry y="56" width="380" height="54" as="geometry" />
        </mxCell>
        <mxCell id="W_4NEHFDwLDEl3qYtD4c-53" value="List" style="swimlane;fontStyle=1;align=center;verticalAlign=top;childLayout=stackLayout;horizontal=1;startSize=26;horizontalStack=0;resizeParent=1;resizeParentMax=0;resizeLast=0;collapsible=1;marginBottom=0;" vertex="1" parent="eGwcsCFsJpwvVwXuNJgI-1">
          <mxGeometry x="1030" y="415" width="190" height="100" as="geometry" />
        </mxCell>
        <mxCell id="W_4NEHFDwLDEl3qYtD4c-54" value="+word: String" style="text;strokeColor=none;fillColor=none;align=left;verticalAlign=top;spacingLeft=4;spacingRight=4;overflow=hidden;rotatable=0;points=[[0,0.5],[1,0.5]];portConstraint=eastwest;" vertex="1" parent="W_4NEHFDwLDEl3qYtD4c-53">
          <mxGeometry y="26" width="190" height="26" as="geometry" />
        </mxCell>
        <mxCell id="W_4NEHFDwLDEl3qYtD4c-55" value="" style="line;strokeWidth=1;fillColor=none;align=left;verticalAlign=middle;spacingTop=-1;spacingLeft=3;spacingRight=3;rotatable=0;labelPosition=right;points=[];portConstraint=eastwest;" vertex="1" parent="W_4NEHFDwLDEl3qYtD4c-53">
          <mxGeometry y="52" width="190" height="8" as="geometry" />
        </mxCell>
        <mxCell id="W_4NEHFDwLDEl3qYtD4c-56" value="+List(projects: ProjectList, ui: Ui)&#xa;+execute()" style="text;strokeColor=none;fillColor=none;align=left;verticalAlign=top;spacingLeft=4;spacingRight=4;overflow=hidden;rotatable=0;points=[[0,0.5],[1,0.5]];portConstraint=eastwest;" vertex="1" parent="W_4NEHFDwLDEl3qYtD4c-53">
          <mxGeometry y="60" width="190" height="40" as="geometry" />
        </mxCell>
        <mxCell id="W_4NEHFDwLDEl3qYtD4c-57" style="edgeStyle=orthogonalEdgeStyle;rounded=0;orthogonalLoop=1;jettySize=auto;html=1;endArrow=block;endFill=0;fontColor=#000000;" edge="1" parent="eGwcsCFsJpwvVwXuNJgI-1" source="W_4NEHFDwLDEl3qYtD4c-58" target="W_4NEHFDwLDEl3qYtD4c-2">
          <mxGeometry relative="1" as="geometry" />
        </mxCell>
        <mxCell id="W_4NEHFDwLDEl3qYtD4c-58" value="Exit" style="swimlane;fontStyle=1;align=center;verticalAlign=top;childLayout=stackLayout;horizontal=1;startSize=26;horizontalStack=0;resizeParent=1;resizeParentMax=0;resizeLast=0;collapsible=1;marginBottom=0;" vertex="1" parent="eGwcsCFsJpwvVwXuNJgI-1">
          <mxGeometry x="2250" y="410" width="130" height="100" as="geometry" />
        </mxCell>
        <mxCell id="W_4NEHFDwLDEl3qYtD4c-59" value="+word: String" style="text;strokeColor=none;fillColor=none;align=left;verticalAlign=top;spacingLeft=4;spacingRight=4;overflow=hidden;rotatable=0;points=[[0,0.5],[1,0.5]];portConstraint=eastwest;" vertex="1" parent="W_4NEHFDwLDEl3qYtD4c-58">
          <mxGeometry y="26" width="130" height="26" as="geometry" />
        </mxCell>
        <mxCell id="W_4NEHFDwLDEl3qYtD4c-60" value="" style="line;strokeWidth=1;fillColor=none;align=left;verticalAlign=middle;spacingTop=-1;spacingLeft=3;spacingRight=3;rotatable=0;labelPosition=right;points=[];portConstraint=eastwest;" vertex="1" parent="W_4NEHFDwLDEl3qYtD4c-58">
          <mxGeometry y="52" width="130" height="8" as="geometry" />
        </mxCell>
        <mxCell id="W_4NEHFDwLDEl3qYtD4c-61" value="+Exit(ui: Ui)&#xa;+execute()" style="text;strokeColor=none;fillColor=none;align=left;verticalAlign=top;spacingLeft=4;spacingRight=4;overflow=hidden;rotatable=0;points=[[0,0.5],[1,0.5]];portConstraint=eastwest;" vertex="1" parent="W_4NEHFDwLDEl3qYtD4c-58">
          <mxGeometry y="60" width="130" height="40" as="geometry" />
        </mxCell>
        <mxCell id="W_4NEHFDwLDEl3qYtD4c-62" value="Invalid" style="swimlane;fontStyle=1;align=center;verticalAlign=top;childLayout=stackLayout;horizontal=1;startSize=26;horizontalStack=0;resizeParent=1;resizeParentMax=0;resizeLast=0;collapsible=1;marginBottom=0;" vertex="1" parent="eGwcsCFsJpwvVwXuNJgI-1">
          <mxGeometry x="470" y="420" width="160" height="70" as="geometry" />
        </mxCell>
        <mxCell id="W_4NEHFDwLDEl3qYtD4c-63" value="" style="line;strokeWidth=1;fillColor=none;align=left;verticalAlign=middle;spacingTop=-1;spacingLeft=3;spacingRight=3;rotatable=0;labelPosition=right;points=[];portConstraint=eastwest;" vertex="1" parent="W_4NEHFDwLDEl3qYtD4c-62">
          <mxGeometry y="26" width="160" height="8" as="geometry" />
        </mxCell>
        <mxCell id="W_4NEHFDwLDEl3qYtD4c-64" value="+Invalid(ui: Ui)&#xa;+execute()" style="text;strokeColor=none;fillColor=none;align=left;verticalAlign=top;spacingLeft=4;spacingRight=4;overflow=hidden;rotatable=0;points=[[0,0.5],[1,0.5]];portConstraint=eastwest;" vertex="1" parent="W_4NEHFDwLDEl3qYtD4c-62">
          <mxGeometry y="34" width="160" height="36" as="geometry" />
        </mxCell>
        <mxCell id="W_4NEHFDwLDEl3qYtD4c-65" style="edgeStyle=orthogonalEdgeStyle;rounded=0;orthogonalLoop=1;jettySize=auto;html=1;endArrow=block;endFill=0;fontColor=#000000;" edge="1" parent="eGwcsCFsJpwvVwXuNJgI-1" source="W_4NEHFDwLDEl3qYtD4c-79">
          <mxGeometry relative="1" as="geometry">
            <mxPoint x="1610" y="1230" as="targetPoint" />
          </mxGeometry>
        </mxCell>
        <mxCell id="W_4NEHFDwLDEl3qYtD4c-66" value="" style="endArrow=none;html=1;fontColor=#000000;" edge="1" parent="eGwcsCFsJpwvVwXuNJgI-1">
          <mxGeometry width="50" height="50" relative="1" as="geometry">
            <mxPoint x="560" y="415" as="sourcePoint" />
            <mxPoint x="560" y="255" as="targetPoint" />
            <Array as="points">
              <mxPoint x="560" y="335" />
            </Array>
          </mxGeometry>
        </mxCell>
        <mxCell id="W_4NEHFDwLDEl3qYtD4c-67" style="edgeStyle=orthogonalEdgeStyle;rounded=0;orthogonalLoop=1;jettySize=auto;html=1;endArrow=block;endFill=0;fontColor=#000000;" edge="1" parent="eGwcsCFsJpwvVwXuNJgI-1">
          <mxGeometry relative="1" as="geometry">
            <mxPoint x="1265" y="230" as="targetPoint" />
            <mxPoint x="1220" y="465" as="sourcePoint" />
          </mxGeometry>
        </mxCell>
        <mxCell id="W_4NEHFDwLDEl3qYtD4c-68" value="" style="endArrow=none;html=1;fontColor=#000000;" edge="1" parent="eGwcsCFsJpwvVwXuNJgI-1">
          <mxGeometry width="50" height="50" relative="1" as="geometry">
            <mxPoint x="849" y="275" as="sourcePoint" />
            <mxPoint x="849" y="255" as="targetPoint" />
            <Array as="points">
              <mxPoint x="849" y="265" />
            </Array>
          </mxGeometry>
        </mxCell>
        <mxCell id="W_4NEHFDwLDEl3qYtD4c-69" value="" style="endArrow=none;html=1;fontColor=#000000;" edge="1" parent="eGwcsCFsJpwvVwXuNJgI-1">
          <mxGeometry width="50" height="50" relative="1" as="geometry">
            <mxPoint x="1640" y="275" as="sourcePoint" />
            <mxPoint x="1640" y="255" as="targetPoint" />
            <Array as="points">
              <mxPoint x="1640" y="255" />
            </Array>
          </mxGeometry>
        </mxCell>
        <mxCell id="W_4NEHFDwLDEl3qYtD4c-70" value="" style="endArrow=none;html=1;fontColor=#000000;" edge="1" parent="eGwcsCFsJpwvVwXuNJgI-1">
          <mxGeometry width="50" height="50" relative="1" as="geometry">
            <mxPoint x="1840" y="415" as="sourcePoint" />
            <mxPoint x="1840" y="255" as="targetPoint" />
          </mxGeometry>
        </mxCell>
        <mxCell id="W_4NEHFDwLDEl3qYtD4c-71" value="Extend" style="text;html=1;align=center;verticalAlign=middle;resizable=0;points=[];autosize=1;fontColor=#000000;" vertex="1" parent="eGwcsCFsJpwvVwXuNJgI-1">
          <mxGeometry x="1500" y="110" width="50" height="20" as="geometry" />
        </mxCell>
        <mxCell id="W_4NEHFDwLDEl3qYtD4c-72" value="Extend" style="text;html=1;align=center;verticalAlign=middle;resizable=0;points=[];autosize=1;fontColor=#000000;" vertex="1" parent="eGwcsCFsJpwvVwXuNJgI-1">
          <mxGeometry x="1260" y="325" width="50" height="20" as="geometry" />
        </mxCell>
        <mxCell id="W_4NEHFDwLDEl3qYtD4c-73" value="Extend" style="text;html=1;align=center;verticalAlign=middle;resizable=0;points=[];autosize=1;fontColor=#000000;" vertex="1" parent="eGwcsCFsJpwvVwXuNJgI-1">
          <mxGeometry x="1630" y="230" width="50" height="20" as="geometry" />
        </mxCell>
        <mxCell id="W_4NEHFDwLDEl3qYtD4c-74" value="Extend" style="text;html=1;align=center;verticalAlign=middle;resizable=0;points=[];autosize=1;fontColor=#000000;" vertex="1" parent="eGwcsCFsJpwvVwXuNJgI-1">
          <mxGeometry x="740" y="70" width="50" height="20" as="geometry" />
        </mxCell>
        <mxCell id="W_4NEHFDwLDEl3qYtD4c-75" value="Extend" style="text;html=1;align=center;verticalAlign=middle;resizable=0;points=[];autosize=1;fontColor=#000000;" vertex="1" parent="eGwcsCFsJpwvVwXuNJgI-1">
          <mxGeometry x="860" y="230" width="50" height="20" as="geometry" />
        </mxCell>
        <mxCell id="W_4NEHFDwLDEl3qYtD4c-76" value="Exception" style="whiteSpace=wrap;html=1;fontColor=#000000;" vertex="1" parent="eGwcsCFsJpwvVwXuNJgI-1">
          <mxGeometry x="1515" y="640" width="190" height="30" as="geometry" />
        </mxCell>
        <mxCell id="W_4NEHFDwLDEl3qYtD4c-77" style="edgeStyle=orthogonalEdgeStyle;rounded=0;orthogonalLoop=1;jettySize=auto;html=1;endArrow=block;endFill=0;fontColor=#000000;" edge="1" parent="eGwcsCFsJpwvVwXuNJgI-1" source="W_4NEHFDwLDEl3qYtD4c-30">
          <mxGeometry relative="1" as="geometry">
            <mxPoint x="910" y="829" as="targetPoint" />
          </mxGeometry>
        </mxCell>
        <mxCell id="W_4NEHFDwLDEl3qYtD4c-78" value="extend" style="text;html=1;align=center;verticalAlign=middle;resizable=0;points=[];autosize=1;fontColor=#000000;" vertex="1" parent="eGwcsCFsJpwvVwXuNJgI-1">
          <mxGeometry x="1610" y="1240" width="50" height="20" as="geometry" />
        </mxCell>
        <mxCell id="W_4NEHFDwLDEl3qYtD4c-79" value="NewProject" style="swimlane;fontStyle=1;align=center;verticalAlign=top;childLayout=stackLayout;horizontal=1;startSize=26;horizontalStack=0;resizeParent=1;resizeParentMax=0;resizeLast=0;collapsible=1;marginBottom=0;fontColor=#000000;" vertex="1" parent="eGwcsCFsJpwvVwXuNJgI-1">
          <mxGeometry x="1490" y="1310" width="240" height="90" as="geometry" />
        </mxCell>
        <mxCell id="W_4NEHFDwLDEl3qYtD4c-80" value="" style="line;strokeWidth=1;fillColor=none;align=left;verticalAlign=middle;spacingTop=-1;spacingLeft=3;spacingRight=3;rotatable=0;labelPosition=right;points=[];portConstraint=eastwest;" vertex="1" parent="W_4NEHFDwLDEl3qYtD4c-79">
          <mxGeometry y="26" width="240" height="8" as="geometry" />
        </mxCell>
        <mxCell id="W_4NEHFDwLDEl3qYtD4c-81" value="+NewProject(description: String)&#xa;+toString()" style="text;strokeColor=none;fillColor=none;align=left;verticalAlign=top;spacingLeft=4;spacingRight=4;overflow=hidden;rotatable=0;points=[[0,0.5],[1,0.5]];portConstraint=eastwest;" vertex="1" parent="W_4NEHFDwLDEl3qYtD4c-79">
          <mxGeometry y="34" width="240" height="56" as="geometry" />
        </mxCell>
        <mxCell id="W_4NEHFDwLDEl3qYtD4c-82" value="Project" style="swimlane;fontStyle=1;align=center;verticalAlign=top;childLayout=stackLayout;horizontal=1;startSize=26;horizontalStack=0;resizeParent=1;resizeParentMax=0;resizeLast=0;collapsible=1;marginBottom=0;fontColor=#000000;" vertex="1" parent="eGwcsCFsJpwvVwXuNJgI-1">
          <mxGeometry x="1520" y="1100" width="160" height="130" as="geometry" />
        </mxCell>
        <mxCell id="W_4NEHFDwLDEl3qYtD4c-83" value="-description : String" style="text;strokeColor=none;fillColor=none;align=left;verticalAlign=top;spacingLeft=4;spacingRight=4;overflow=hidden;rotatable=0;points=[[0,0.5],[1,0.5]];portConstraint=eastwest;" vertex="1" parent="W_4NEHFDwLDEl3qYtD4c-82">
          <mxGeometry y="26" width="160" height="26" as="geometry" />
        </mxCell>
        <mxCell id="W_4NEHFDwLDEl3qYtD4c-84" value="" style="line;strokeWidth=1;fillColor=none;align=left;verticalAlign=middle;spacingTop=-1;spacingLeft=3;spacingRight=3;rotatable=0;labelPosition=right;points=[];portConstraint=eastwest;" vertex="1" parent="W_4NEHFDwLDEl3qYtD4c-82">
          <mxGeometry y="52" width="160" height="8" as="geometry" />
        </mxCell>
        <mxCell id="W_4NEHFDwLDEl3qYtD4c-85" value="+Project(description: String)&#xa;+getDescription()&#xa;+toString()" style="text;strokeColor=none;fillColor=none;align=left;verticalAlign=top;spacingLeft=4;spacingRight=4;overflow=hidden;rotatable=0;points=[[0,0.5],[1,0.5]];portConstraint=eastwest;" vertex="1" parent="W_4NEHFDwLDEl3qYtD4c-82">
          <mxGeometry y="60" width="160" height="70" as="geometry" />
        </mxCell>
        <mxCell id="W_4NEHFDwLDEl3qYtD4c-86" value="projectList" style="swimlane;fontStyle=1;align=center;verticalAlign=top;childLayout=stackLayout;horizontal=1;startSize=26;horizontalStack=0;resizeParent=1;resizeParentMax=0;resizeLast=0;collapsible=1;marginBottom=0;" vertex="1" parent="eGwcsCFsJpwvVwXuNJgI-1">
          <mxGeometry x="1490" y="880" width="240" height="170" as="geometry" />
        </mxCell>
        <mxCell id="W_4NEHFDwLDEl3qYtD4c-87" value="-projects: ArrayList&lt;Project&gt;" style="text;strokeColor=none;fillColor=none;align=left;verticalAlign=top;spacingLeft=4;spacingRight=4;overflow=hidden;rotatable=0;points=[[0,0.5],[1,0.5]];portConstraint=eastwest;" vertex="1" parent="W_4NEHFDwLDEl3qYtD4c-86">
          <mxGeometry y="26" width="240" height="26" as="geometry" />
        </mxCell>
        <mxCell id="W_4NEHFDwLDEl3qYtD4c-88" value="" style="line;strokeWidth=1;fillColor=none;align=left;verticalAlign=middle;spacingTop=-1;spacingLeft=3;spacingRight=3;rotatable=0;labelPosition=right;points=[];portConstraint=eastwest;" vertex="1" parent="W_4NEHFDwLDEl3qYtD4c-86">
          <mxGeometry y="52" width="240" height="8" as="geometry" />
        </mxCell>
        <mxCell id="W_4NEHFDwLDEl3qYtD4c-89" value="+ProjectList()&#xa;+size(): int&#xa;+add(project: Project)&#xa;+set(index: int, project: Project)&#xa;+remove(index: int)&#xa;+get(index: int): Project" style="text;strokeColor=none;fillColor=none;align=left;verticalAlign=top;spacingLeft=4;spacingRight=4;overflow=hidden;rotatable=0;points=[[0,0.5],[1,0.5]];portConstraint=eastwest;" vertex="1" parent="W_4NEHFDwLDEl3qYtD4c-86">
          <mxGeometry y="60" width="240" height="110" as="geometry" />
        </mxCell>
        <mxCell id="W_4NEHFDwLDEl3qYtD4c-90" value="Send" style="swimlane;fontStyle=1;align=center;verticalAlign=top;childLayout=stackLayout;horizontal=1;startSize=26;horizontalStack=0;resizeParent=1;resizeParentMax=0;resizeLast=0;collapsible=1;marginBottom=0;" vertex="1" parent="eGwcsCFsJpwvVwXuNJgI-1">
          <mxGeometry x="1325" y="415" width="190" height="100" as="geometry" />
        </mxCell>
        <mxCell id="W_4NEHFDwLDEl3qYtD4c-91" value="+word: String" style="text;strokeColor=none;fillColor=none;align=left;verticalAlign=top;spacingLeft=4;spacingRight=4;overflow=hidden;rotatable=0;points=[[0,0.5],[1,0.5]];portConstraint=eastwest;" vertex="1" parent="W_4NEHFDwLDEl3qYtD4c-90">
          <mxGeometry y="26" width="190" height="26" as="geometry" />
        </mxCell>
        <mxCell id="W_4NEHFDwLDEl3qYtD4c-92" value="" style="line;strokeWidth=1;fillColor=none;align=left;verticalAlign=middle;spacingTop=-1;spacingLeft=3;spacingRight=3;rotatable=0;labelPosition=right;points=[];portConstraint=eastwest;" vertex="1" parent="W_4NEHFDwLDEl3qYtD4c-90">
          <mxGeometry y="52" width="190" height="8" as="geometry" />
        </mxCell>
        <mxCell id="W_4NEHFDwLDEl3qYtD4c-93" value="+Send(projects: ProjectList, ui: Ui)&#xa;+execute()" style="text;strokeColor=none;fillColor=none;align=left;verticalAlign=top;spacingLeft=4;spacingRight=4;overflow=hidden;rotatable=0;points=[[0,0.5],[1,0.5]];portConstraint=eastwest;" vertex="1" parent="W_4NEHFDwLDEl3qYtD4c-90">
          <mxGeometry y="60" width="190" height="40" as="geometry" />
        </mxCell>
        <mxCell id="W_4NEHFDwLDEl3qYtD4c-94" style="edgeStyle=orthogonalEdgeStyle;rounded=0;orthogonalLoop=1;jettySize=auto;html=1;endArrow=block;endFill=0;fontColor=#000000;" edge="1" parent="eGwcsCFsJpwvVwXuNJgI-1">
          <mxGeometry relative="1" as="geometry">
            <mxPoint x="1275" y="230" as="targetPoint" />
            <mxPoint x="1324" y="464" as="sourcePoint" />
          </mxGeometry>
        </mxCell>
        <mxCell id="W_4NEHFDwLDEl3qYtD4c-95" value="DateConverter" style="swimlane;fontStyle=1;align=center;verticalAlign=top;childLayout=stackLayout;horizontal=1;startSize=26;horizontalStack=0;resizeParent=1;resizeParentMax=0;resizeLast=0;collapsible=1;marginBottom=0;" vertex="1" parent="eGwcsCFsJpwvVwXuNJgI-1">
          <mxGeometry x="1790" y="880" width="300" height="240" as="geometry" />
        </mxCell>
        <mxCell id="W_4NEHFDwLDEl3qYtD4c-96" value="- startDate String&#xa;- dueDate String&#xa;- dateDiff String&#xa;- dysLeft String" style="text;strokeColor=none;fillColor=none;align=left;verticalAlign=top;spacingLeft=4;spacingRight=4;overflow=hidden;rotatable=0;points=[[0,0.5],[1,0.5]];portConstraint=eastwest;" vertex="1" parent="W_4NEHFDwLDEl3qYtD4c-95">
          <mxGeometry y="26" width="300" height="74" as="geometry" />
        </mxCell>
        <mxCell id="W_4NEHFDwLDEl3qYtD4c-97" value="" style="line;strokeWidth=1;fillColor=none;align=left;verticalAlign=middle;spacingTop=-1;spacingLeft=3;spacingRight=3;rotatable=0;labelPosition=right;points=[];portConstraint=eastwest;" vertex="1" parent="W_4NEHFDwLDEl3qYtD4c-95">
          <mxGeometry y="100" width="300" height="20" as="geometry" />
        </mxCell>
        <mxCell id="W_4NEHFDwLDEl3qYtD4c-98" value="+DateConverter(String startDate, String dueDate)&#xa;+DateConverter(String dueDate)&#xa;+setDateDiff()&#xa;+setDaysLeft()&#xa;+dateConverter(String dateInString)&#xa;+calculateDateDiff(String startDate, String endDate)&#xa;-getDateDiff()&#xa;-getDaysLeft()" style="text;strokeColor=none;fillColor=none;align=left;verticalAlign=top;spacingLeft=4;spacingRight=4;overflow=hidden;rotatable=0;points=[[0,0.5],[1,0.5]];portConstraint=eastwest;" vertex="1" parent="W_4NEHFDwLDEl3qYtD4c-95">
          <mxGeometry y="120" width="300" height="120" as="geometry" />
        </mxCell>
        <mxCell id="W_4NEHFDwLDEl3qYtD4c-99" value="SendEmail" style="swimlane;fontStyle=1;align=center;verticalAlign=top;childLayout=stackLayout;horizontal=1;startSize=26;horizontalStack=0;resizeParent=1;resizeParentMax=0;resizeLast=0;collapsible=1;marginBottom=0;" vertex="1" parent="eGwcsCFsJpwvVwXuNJgI-1">
          <mxGeometry x="1130" y="1110" width="250" height="138" as="geometry" />
        </mxCell>
        <mxCell id="W_4NEHFDwLDEl3qYtD4c-100" value="+ receiver: String&#xa;+ messages : String" style="text;strokeColor=none;fillColor=none;align=left;verticalAlign=top;spacingLeft=4;spacingRight=4;overflow=hidden;rotatable=0;points=[[0,0.5],[1,0.5]];portConstraint=eastwest;" vertex="1" parent="W_4NEHFDwLDEl3qYtD4c-99">
          <mxGeometry y="26" width="250" height="44" as="geometry" />
        </mxCell>
        <mxCell id="W_4NEHFDwLDEl3qYtD4c-101" value="" style="line;strokeWidth=1;fillColor=none;align=left;verticalAlign=middle;spacingTop=-1;spacingLeft=3;spacingRight=3;rotatable=0;labelPosition=right;points=[];portConstraint=eastwest;" vertex="1" parent="W_4NEHFDwLDEl3qYtD4c-99">
          <mxGeometry y="70" width="250" height="8" as="geometry" />
        </mxCell>
        <mxCell id="W_4NEHFDwLDEl3qYtD4c-102" value="+sendEmail()&#xa;" style="text;strokeColor=none;fillColor=none;align=left;verticalAlign=top;spacingLeft=4;spacingRight=4;overflow=hidden;rotatable=0;points=[[0,0.5],[1,0.5]];portConstraint=eastwest;" vertex="1" parent="W_4NEHFDwLDEl3qYtD4c-99">
          <mxGeometry y="78" width="250" height="60" as="geometry" />
        </mxCell>
        <mxCell id="W_4NEHFDwLDEl3qYtD4c-103" style="edgeStyle=orthogonalEdgeStyle;rounded=0;orthogonalLoop=1;jettySize=auto;html=1;entryX=0.563;entryY=1.037;entryDx=0;entryDy=0;entryPerimeter=0;endArrow=block;endFill=0;fontColor=#000000;exitX=0.5;exitY=0;exitDx=0;exitDy=0;" edge="1" parent="eGwcsCFsJpwvVwXuNJgI-1" source="W_4NEHFDwLDEl3qYtD4c-99" target="W_4NEHFDwLDEl3qYtD4c-22">
          <mxGeometry relative="1" as="geometry">
            <mxPoint x="895" y="1120" as="sourcePoint" />
            <mxPoint x="1069.8799999999997" y="970" as="targetPoint" />
            <Array as="points">
              <mxPoint x="1255" y="1030" />
              <mxPoint x="1066" y="1030" />
            </Array>
          </mxGeometry>
        </mxCell>
        <mxCell id="W_4NEHFDwLDEl3qYtD4c-104" style="edgeStyle=orthogonalEdgeStyle;rounded=0;orthogonalLoop=1;jettySize=auto;html=1;entryX=1.012;entryY=0.321;entryDx=0;entryDy=0;entryPerimeter=0;endArrow=block;endFill=0;fontColor=#000000;exitX=0.627;exitY=-0.022;exitDx=0;exitDy=0;exitPerimeter=0;" edge="1" parent="eGwcsCFsJpwvVwXuNJgI-1" source="W_4NEHFDwLDEl3qYtD4c-95" target="W_4NEHFDwLDEl3qYtD4c-20">
          <mxGeometry relative="1" as="geometry">
            <mxPoint x="1980" y="840" as="sourcePoint" />
            <mxPoint x="1194.8799999999997" y="810" as="targetPoint" />
            <Array as="points">
              <mxPoint x="1978" y="820" />
              <mxPoint x="1195" y="820" />
              <mxPoint x="1195" y="813" />
            </Array>
          </mxGeometry>
        </mxCell>
      </root>
    </mxGraphModel>
  </diagram>
</mxfile>
